<?xml version="1.0" encoding="UTF-8" standalone="no"?>
<!-- Created with Inkscape (http://www.inkscape.org/) -->

<svg
   width="210mm"
   height="297mm"
   viewBox="0 0 210 297"
   version="1.1"
   id="svg5"
   inkscape:version="1.3 (0e150ed, 2023-07-21)"
   sodipodi:docname="ialight-logo-2.svg"
   xmlns:inkscape="http://www.inkscape.org/namespaces/inkscape"
   xmlns:sodipodi="http://sodipodi.sourceforge.net/DTD/sodipodi-0.dtd"
   xmlns="http://www.w3.org/2000/svg"
   xmlns:svg="http://www.w3.org/2000/svg">
  <sodipodi:namedview
     id="namedview7"
     pagecolor="#ffffff"
     bordercolor="#666666"
     borderopacity="1.0"
     inkscape:pageshadow="2"
     inkscape:pageopacity="0.0"
     inkscape:pagecheckerboard="0"
     inkscape:document-units="mm"
     showgrid="false"
     inkscape:zoom="1.8612201"
     inkscape:cx="383.61933"
     inkscape:cy="273.20788"
     inkscape:window-width="1920"
     inkscape:window-height="986"
     inkscape:window-x="0"
     inkscape:window-y="22"
     inkscape:window-maximized="0"
     inkscape:current-layer="layer1"
     inkscape:showpageshadow="2"
     inkscape:deskcolor="#d1d1d1">
    <inkscape:grid
       type="xygrid"
       id="grid9"
       originx="0"
       originy="0"
       spacingy="1"
       spacingx="1"
       units="mm"
       visible="false" />
  </sodipodi:namedview>
  <defs
     id="defs2" />
  <g
     inkscape:label="Layer 1"
     inkscape:groupmode="layer"
     id="layer1">
    <path
       d="m 100.57061,91.272982 c -0.01,-0.196129 -0.0127,-0.397432 -0.0388,-0.580327 -0.0415,-0.291042 -0.10365,-0.56516 -0.18655,-0.822688 -0.0829,-0.257528 -0.18674,-0.498423 -0.3111,-0.722437 -0.124351,-0.224014 -0.269305,-0.431167 -0.435111,-0.621667 -0.165806,-0.194028 -0.346143,-0.363492 -0.541053,-0.509013 -0.19491,-0.145521 -0.404371,-0.266788 -0.628385,-0.363802 -0.224014,-0.09701 -0.462601,-0.170085 -0.715719,-0.218592 -0.253118,-0.04851 -0.520829,-0.07286 -0.803051,-0.07286 -0.282223,0 -0.549934,0.02436 -0.803052,0.07286 -0.253118,0.04851 -0.491705,0.121578 -0.715719,0.218592 -0.224014,0.09701 -0.433475,0.218281 -0.628385,0.363802 -0.19491,0.145521 -0.375247,0.314985 -0.541052,0.509013 -0.165806,0.1905 -0.310762,0.397653 -0.435116,0.621667 -0.124354,0.224014 -0.228189,0.464909 -0.311092,0.722437 -0.0829,0.257528 -0.145101,0.531646 -0.186552,0.822688 -0.02577,0.180949 -0.02901,0.380222 -0.03876,0.574126 1.518782,0.0015 1.516727,0.003 3.290238,0.0047 2.197876,0.0021 2.219022,-2.8e-5 4.029216,0.0016 z"
       style="display:inline;fill:#bfd8c3;stroke-width:1.2598"
       id="path21" />
    <path
       d="m 112.32699,91.278149 v -0.762744 c 0,-0.359833 -0.025,-0.687585 -0.0744,-0.983919 -0.0247,-0.148167 -0.0555,-0.288354 -0.0925,-0.420646 -0.037,-0.132292 -0.0803,-0.256687 -0.12971,-0.373104 -0.0459,-0.116417 -0.0987,-0.225688 -0.15865,-0.327112 -0.06,-0.101424 -0.12693,-0.195206 -0.20102,-0.281636 -0.0741,-0.08643 -0.1552,-0.165241 -0.24339,-0.236678 -0.0882,-0.07144 -0.18347,-0.135275 -0.28577,-0.19172 -0.10231,-0.05644 -0.2124,-0.105978 -0.3297,-0.148311 -0.1173,-0.04233 -0.24185,-0.07771 -0.37414,-0.105937 -0.26458,-0.05644 -0.55911,-0.08475 -0.88366,-0.08475 -0.17992,0 -0.35467,0.01005 -0.524,0.02945 -0.16934,0.0194 -0.33321,0.04853 -0.49196,0.08733 -0.15875,0.03881 -0.31227,0.087 -0.46044,0.145211 -0.14817,0.05821 -0.29081,0.125994 -0.4284,0.203605 -0.13405,0.07408 -0.26076,0.15669 -0.37982,0.24753 -0.11906,0.09084 -0.23079,0.190059 -0.33486,0.297657 -0.10407,0.107597 -0.20083,0.223428 -0.28991,0.347782 -0.0891,0.124354 -0.17034,0.257314 -0.24443,0.398425 -0.0741,0.137584 -0.13874,0.281568 -0.1943,0.431499 -0.0556,0.14993 -0.10197,0.30591 -0.13901,0.468188 -0.037,0.162278 -0.0652,0.33077 -0.0837,0.505396 -0.0185,0.174625 -0.0274,0.355113 -0.0274,0.542085 v 0.209807 c 2.14181,0.0012 4.9359,0.0031 6.37118,0.0026 z"
       style="display:inline;fill:#bfd8c3;stroke-width:1.2598"
       id="path17" />
    <path
       id="path14"
       style="display:inline;fill:#bfd8c3;stroke-width:1.2598"
       d="M 129.2872 51.072335 L 61.738867 51.091972 L 61.743518 51.266638 C 61.746018 51.362878 61.763612 51.564442 61.782792 51.714156 C 61.798662 51.838022 61.81175 51.909934 61.84222 51.971505 C 61.87269 52.033075 61.92068 52.084041 62.006551 52.165808 C 62.077521 52.233368 62.130709 52.296103 62.175533 52.368896 C 62.220353 52.441686 62.256783 52.524537 62.293872 52.632446 C 62.351592 52.800397 62.381679 52.937354 62.385339 53.073246 C 62.389039 53.209139 62.365906 53.343957 62.317126 53.508362 C 62.280717 53.63109 62.258581 53.737097 62.254081 53.838574 C 62.249581 53.940052 62.262883 54.036989 62.298523 54.141398 C 62.334203 54.245807 62.392163 54.357659 62.47629 54.489181 C 62.56042 54.620701 62.670828 54.77197 62.81167 54.954785 C 63.063991 55.282318 63.19536 55.455901 63.27314 55.592472 C 63.35092 55.729044 63.375155 55.828533 63.41215 56.008984 C 63.43383 56.11472 63.448368 56.200031 63.452458 56.279769 C 63.456558 56.359509 63.450153 56.433968 63.429203 56.51748 C 63.387223 56.684507 63.287735 56.888459 63.100541 57.249219 C 62.95123 57.536972 62.871645 57.696768 62.817871 57.882772 C 62.764101 58.068775 62.735841 58.281363 62.688163 58.674972 C 62.672223 58.806533 62.647599 58.934956 62.613749 59.063578 C 62.579899 59.1922 62.536879 59.321008 62.483525 59.452702 C 62.396835 59.666673 62.195936 60.182838 62.03704 60.599919 C 61.896577 60.96861 61.824354 61.161133 61.786926 61.310986 C 61.749496 61.46084 61.746835 61.568243 61.745585 61.766772 C 61.74468 61.912452 61.747589 62.028444 61.765739 62.136776 C 61.783899 62.245108 61.817079 62.345808 61.876843 62.459753 C 61.936603 62.5737 62.023216 62.700824 62.147111 62.863346 C 62.271006 63.025869 62.432643 63.223717 62.643205 63.477779 C 62.738375 63.592618 62.845904 63.742963 62.957914 63.913928 C 63.069925 64.084893 63.186002 64.276172 63.297428 64.47255 C 63.520281 64.86531 63.724604 65.27862 63.840548 65.588761 C 63.917278 65.794006 63.960473 65.91874 63.984208 66.036796 C 64.007938 66.154853 64.0124 66.26593 64.01263 66.444006 C 64.012862 66.584685 64.017831 66.70558 64.03175 66.819177 C 64.04562 66.932775 64.068321 67.03904 64.103581 67.149906 C 64.138841 67.260774 64.186461 67.376569 64.250859 67.509058 C 64.315248 67.641546 64.3966 67.791034 64.497872 67.969495 C 64.665816 68.265439 64.75493 68.426131 64.809998 68.563774 C 64.865068 68.701415 64.885628 68.815581 64.917485 69.019043 C 64.953265 69.2476 64.985965 69.430153 65.025488 69.586967 C 65.065008 69.743781 65.111808 69.874936 65.175867 70.000895 C 65.239927 70.126855 65.321247 70.247824 65.430632 70.383818 C 65.540015 70.51981 65.677322 70.670775 65.852828 70.85769 C 66.139084 71.162587 66.50222 71.55008 66.660014 71.71862 C 66.797708 71.865685 66.912332 71.997949 67.00883 72.125313 C 67.10533 72.252678 67.183603 72.375015 67.249642 72.503585 C 67.315682 72.632155 67.369204 72.766832 67.415523 72.917513 C 67.461843 73.068194 67.501173 73.234895 67.538513 73.428593 C 67.589363 73.692366 67.693654 74.138201 67.770024 74.41923 C 67.841204 74.681207 67.880394 74.856847 67.898181 75.06932 C 67.915971 75.281792 67.912028 75.531401 67.897148 75.941618 C 67.890248 76.129989 67.888652 76.232771 67.918852 76.376733 C 67.949022 76.520697 68.011002 76.70565 68.131242 77.058346 C 68.224482 77.331835 68.301284 77.548426 68.374121 77.729622 C 68.446961 77.91082 68.51585 78.056801 68.593229 78.187992 C 68.670609 78.319184 68.756632 78.435557 68.863497 78.559029 C 68.970362 78.682501 69.098046 78.812851 69.259338 78.97089 C 69.36226 79.071741 69.453769 79.171026 69.534774 79.270097 C 69.615784 79.369167 69.686369 79.468169 69.747164 79.56827 C 69.807954 79.668371 69.858869 79.769735 69.90116 79.873678 C 69.94345 79.977619 69.976951 80.083995 70.002445 80.194588 C 70.040055 80.35776 70.138367 80.626978 70.221037 80.793001 C 70.298827 80.949227 70.360141 81.083989 70.407589 81.213647 C 70.455039 81.343307 70.488729 81.467862 70.511458 81.604838 C 70.534178 81.741814 70.546079 81.891235 70.549699 82.069409 C 70.553299 82.247583 70.548707 82.454876 70.538847 82.70813 C 70.531747 82.889153 70.531043 82.995778 70.553833 83.123092 C 70.576583 83.250405 70.623073 83.398044 70.709379 83.660527 C 70.789649 83.904643 70.83776 84.069434 70.873193 84.248604 C 70.908623 84.427776 70.931046 84.621486 70.958976 84.924532 C 70.985966 85.21735 71.008182 85.409682 71.039591 85.574105 C 71.071001 85.738528 71.111621 85.875074 71.174984 86.055212 C 71.230094 86.2119 71.271914 86.33686 71.301591 86.44847 C 71.331261 86.56008 71.348764 86.658356 71.355334 86.761629 C 71.361934 86.864903 71.357629 86.973082 71.343449 87.104761 C 71.329259 87.23644 71.305272 87.391626 71.272652 87.588452 C 71.196772 88.046398 71.13994 88.391581 71.101603 88.659705 C 71.063263 88.927828 71.043685 89.118669 71.042175 89.267936 C 71.040675 89.417203 71.057185 89.525196 71.091785 89.626571 C 71.126385 89.727946 71.178895 89.823033 71.248881 89.947481 C 71.356095 90.138115 71.531568 90.366871 71.676245 90.504553 C 71.82528 90.646377 72.03068 90.795852 72.237451 90.920549 C 72.444222 91.045244 72.652615 91.145149 72.808476 91.187199 C 72.860656 91.201259 73.036601 91.212345 73.60481 91.221305 C 74.173017 91.230305 75.13363 91.237259 76.753971 91.243009 C 77.721157 91.246409 81.164988 91.248378 82.659554 91.251278 L 82.659554 82.027551 L 83.548905 82.027551 L 83.548905 91.252828 C 84.873736 91.255128 86.709579 91.257863 88.488656 91.260063 L 88.488656 86.705819 L 89.378007 86.705819 L 89.378007 91.261096 C 90.495766 91.262396 91.030093 91.26393 92.333899 91.26523 C 92.339599 91.135961 92.339996 91.003076 92.351986 90.878174 C 92.374916 90.640048 92.409476 90.410026 92.455339 90.187777 C 92.501198 89.965526 92.558629 89.75078 92.627421 89.544405 C 92.696211 89.33803 92.776511 89.139592 92.868233 88.949093 C 92.963483 88.758592 93.06829 88.578923 93.182943 88.409591 C 93.297596 88.240257 93.421991 88.081301 93.556047 87.933134 C 93.690101 87.784967 93.83357 87.647756 93.987028 87.520756 C 94.140486 87.393756 94.304059 87.277257 94.476921 87.171423 C 94.649781 87.06559 94.830271 86.972779 95.019006 86.893404 C 95.207743 86.814034 95.40454 86.747883 95.609151 86.694967 C 95.813762 86.642047 96.026353 86.602567 96.246838 86.576111 C 96.467325 86.549651 96.695707 86.53632 96.932068 86.53632 C 97.175485 86.53632 97.410276 86.552783 97.636934 86.585413 C 97.863594 86.618043 98.082289 86.666913 98.292192 86.732174 C 98.502093 86.797434 98.70366 86.878707 98.896806 86.976603 C 99.089952 87.074503 99.274388 87.18869 99.450777 87.319218 C 99.627166 87.446218 99.787763 87.585586 99.932402 87.73728 C 100.07704 87.888975 100.20605 88.053368 100.31894 88.229757 C 100.41744 88.383592 100.49837 88.550648 100.57267 88.723267 L 100.57267 86.705819 L 101.46151 86.705819 L 101.46151 91.273499 C 103.00923 91.274799 103.79165 91.274273 105.06646 91.275049 L 105.06646 82.027551 L 105.95581 82.027551 L 105.95581 88.572371 C 106.05101 88.381118 106.15808 88.202803 106.27827 88.039071 C 106.39998 87.873265 106.53458 87.721385 106.68186 87.583801 C 106.82915 87.446218 106.98907 87.323159 107.16193 87.213798 C 107.3348 87.100909 107.51431 87.001842 107.7004 86.917175 C 107.88649 86.832505 108.07934 86.762263 108.27866 86.705819 C 108.47798 86.649369 108.68416 86.606919 108.89671 86.578695 C 109.10926 86.550475 109.32826 86.53632 109.55404 86.53632 C 109.75865 86.53632 109.95463 86.545725 110.1416 86.564225 C 110.32857 86.582745 110.5066 86.610384 110.67593 86.647424 C 110.84526 86.684464 111.00586 86.730874 111.15756 86.786434 C 111.30925 86.841994 111.4519 86.906654 111.58595 86.980737 C 111.72354 87.051297 111.85255 87.130923 111.97249 87.219999 C 112.09244 87.309079 112.2035 87.407474 112.30581 87.515072 C 112.40811 87.622669 112.50123 87.739837 112.58589 87.865955 C 112.67059 87.992072 112.74676 88.127492 112.81379 88.272131 C 112.88079 88.41677 112.93921 88.570291 112.98949 88.732568 C 113.03979 88.894846 113.08159 89.0658 113.11506 89.245715 C 113.14856 89.425632 113.17371 89.614017 113.19051 89.811572 C 113.20731 90.009128 113.21583 90.215978 113.21583 90.431173 L 113.21583 91.278666 C 113.96539 91.278227 116.17885 91.281316 116.75515 91.280216 C 116.9508 91.279855 116.96959 91.278649 117.14737 91.278149 L 117.14737 87.467529 L 115.09427 87.467529 L 115.09427 86.705819 L 117.14737 86.705819 L 117.14737 83.509631 L 118.03621 83.509631 L 118.03621 86.705819 L 121.40189 86.705819 L 121.40189 87.467529 L 118.03621 87.467529 L 118.03621 91.273499 C 118.76265 91.270299 119.65096 91.268096 120.05417 91.262646 C 120.71336 91.253746 121.03725 91.241946 121.34143 91.225956 C 122.05462 91.188496 122.70027 91.166837 122.77597 91.177897 C 122.85167 91.188987 123.13059 91.271927 123.39557 91.362382 L 123.87719 91.526713 L 124.42755 91.998002 C 124.73012 92.257069 125.12477 92.629827 125.30501 92.826892 C 125.48525 93.023956 125.79383 93.317332 125.99076 93.478532 L 125.98869 93.478532 C 126.15478 93.614485 126.24767 93.687815 126.32149 93.727096 C 126.39529 93.766376 126.45016 93.771537 126.53956 93.771537 C 126.66163 93.771537 126.78193 93.750199 126.89458 93.709009 C 127.00722 93.667819 127.11195 93.606813 127.20361 93.528658 C 127.26471 93.476578 127.30081 93.439368 127.32143 93.395333 C 127.34203 93.351303 127.34727 93.300723 127.34727 93.222217 C 127.34727 93.120793 127.31527 92.91833 127.27647 92.772632 C 127.23087 92.601284 127.21486 92.423082 127.22686 92.258968 C 127.23286 92.176908 127.24572 92.098265 127.26562 92.025907 C 127.28542 91.953547 127.3119 91.887451 127.3452 91.830054 C 127.3994 91.736534 127.47482 91.641574 127.56534 91.548934 C 127.65584 91.456294 127.76149 91.365818 127.87695 91.282284 C 127.9924 91.198744 128.11741 91.122143 128.24644 91.055941 C 128.37548 90.989741 128.50845 90.934319 128.63969 90.893677 C 128.76749 90.854097 129.05861 90.793053 129.28617 90.758285 C 129.53263 90.720615 129.70503 90.681285 129.85512 90.618758 C 130.00521 90.556238 130.13276 90.470672 130.28869 90.340739 C 130.45534 90.201872 130.57558 90.075989 130.66696 89.937146 C 130.75836 89.798303 130.82095 89.6463 130.8716 89.455005 C 130.9197 89.273188 130.9987 88.972623 131.0473 88.786829 C 131.079 88.665776 131.11909 88.5478 131.16977 88.429744 C 131.22037 88.311689 131.28159 88.193445 131.35529 88.071627 C 131.50267 87.827991 131.70045 87.56988 131.96455 87.270642 C 132.15418 87.055795 132.3065 86.87287 132.42861 86.708403 C 132.55071 86.543934 132.64255 86.397793 132.71025 86.256234 C 132.77795 86.114675 132.8218 85.978089 132.84822 85.83197 C 132.87462 85.685851 132.88351 85.530561 132.88181 85.352413 C 132.87981 85.13931 132.86639 84.949332 132.83789 84.775187 C 132.80939 84.601042 132.76568 84.442792 132.70404 84.291496 C 132.64244 84.140199 132.56242 83.996286 132.46117 83.851729 C 132.35992 83.707172 132.23756 83.561756 132.09013 83.407829 C 131.90518 83.214756 131.75644 83.050894 131.63899 82.906051 C 131.52154 82.761206 131.43499 82.635649 131.37441 82.518477 C 131.31381 82.401306 131.27922 82.292633 131.26486 82.182581 C 131.25056 82.072527 131.25688 81.960872 131.27778 81.837382 C 131.30578 81.67472 131.38202 81.388169 131.46536 81.112362 C 131.54866 80.836553 131.6392 80.571557 131.69635 80.452454 C 131.72155 80.400004 131.77456 80.331254 131.84467 80.256083 C 131.91487 80.180913 132.00188 80.099355 132.0953 80.019922 C 132.28216 79.861055 132.49387 79.712003 132.64358 79.646818 C 132.75174 79.599728 132.8455 79.570388 133.04718 79.539848 C 133.24886 79.509298 133.55844 79.477438 134.09983 79.42616 C 134.76738 79.36292 135.47296 79.299867 135.66717 79.286117 C 135.88608 79.270567 136.13331 79.235145 136.371 79.187415 C 136.60869 79.139685 136.83671 79.079531 137.01748 79.014815 C 137.16856 78.960705 137.78067 78.676332 138.3776 78.382812 C 138.89439 78.128716 139.17045 77.991237 139.36462 77.87535 C 139.55878 77.759463 139.67106 77.665354 139.8602 77.498112 C 140.07869 77.304947 140.30986 77.059354 140.37386 76.952409 C 140.43786 76.845492 140.55373 76.539643 140.63173 76.272864 C 140.70973 76.006079 140.83053 75.688662 140.89993 75.56748 C 140.97773 75.431732 141.11705 75.252635 141.28388 75.068803 C 141.4507 74.88497 141.64497 74.696289 141.83114 74.541187 C 141.95968 74.434097 142.07353 74.330123 142.17427 74.227511 C 142.27502 74.124897 142.36258 74.023641 142.4373 73.923136 C 142.512 73.822632 142.57392 73.722626 142.62437 73.621863 C 142.67477 73.521099 142.71377 73.419845 142.74167 73.316455 C 142.78547 73.154397 142.82387 72.841538 142.84761 72.511853 C 142.87131 72.182168 142.88068 71.835427 142.86518 71.605448 C 142.84858 71.360756 142.83307 71.166965 142.81247 71.007035 C 142.79187 70.847106 142.76642 70.721056 142.73082 70.612227 C 142.69522 70.503398 142.64942 70.411648 142.58768 70.320256 C 142.52598 70.228866 142.44823 70.137973 142.34945 70.030351 C 142.21864 69.887832 142.10586 69.783484 141.94844 69.674817 C 141.79102 69.56615 141.58924 69.453099 141.28078 69.292411 C 141.03737 69.165608 140.83783 69.054678 140.66842 68.946179 C 140.499 68.83768 140.35946 68.731693 140.23485 68.6139 C 140.11024 68.496107 140.00073 68.366543 139.89172 68.211857 C 139.78271 68.057171 139.67429 67.877579 139.55169 67.658403 C 139.45269 67.481489 139.36589 67.334888 139.2778 67.2052 C 139.1897 67.075512 139.10051 66.962611 138.99668 66.851733 C 138.89286 66.740857 138.77441 66.632184 138.62823 66.511702 C 138.48205 66.391222 138.308 66.258859 138.09286 66.100358 C 137.75431 65.850915 137.37034 65.539195 137.23969 65.407894 C 137.09868 65.26619 136.92921 65.065206 136.77873 64.867358 C 136.62825 64.669512 136.49653 64.475029 136.43198 64.34646 C 136.35508 64.193318 136.26176 64.038145 136.15655 63.887056 C 136.05134 63.735969 135.9343 63.588656 135.81135 63.451424 C 135.6884 63.314193 135.55958 63.187308 135.42946 63.075736 C 135.29934 62.964166 135.16808 62.868207 135.04137 62.7941 C 134.90738 62.71574 134.5326 62.575073 134.15667 62.462337 C 133.79798 62.354788 133.2056 62.138997 132.83995 61.982263 C 132.55228 61.858972 132.37576 61.778337 132.23741 61.70011 C 132.09906 61.62188 131.99874 61.545736 131.8643 61.430359 C 131.73051 61.315532 131.62785 61.224833 131.54132 61.130636 C 131.45482 61.036436 131.38466 60.938976 131.31653 60.811275 C 131.24843 60.683575 131.18223 60.525346 131.10363 60.310014 C 131.02503 60.094681 130.93374 59.822199 130.81579 59.465104 C 130.58486 58.766043 130.31686 57.978218 130.21996 57.714823 C 130.14876 57.521197 130.09342 57.355834 130.05304 57.207878 C 130.01264 57.05992 129.98745 56.929478 129.97605 56.807385 C 129.96465 56.685293 129.96676 56.571501 129.98276 56.455469 C 129.99856 56.339437 130.02745 56.221442 130.06855 56.091667 C 130.10655 55.971631 130.19676 55.782226 130.30161 55.591956 C 130.40646 55.401684 130.5257 55.210175 130.622 55.08656 C 130.6931 54.99522 130.81272 54.805324 130.88762 54.664364 C 130.94442 54.557462 130.97922 54.479108 131.00131 54.390995 C 131.02341 54.302885 131.03273 54.205062 131.03903 54.059749 L 131.05453 53.71145 L 130.5295 53.062911 C 130.24085 52.706174 129.92999 52.291233 129.83859 52.14152 C 129.74719 51.991799 129.64438 51.840537 129.61018 51.805107 C 129.57608 51.769677 129.51788 51.639068 129.48099 51.514685 C 129.44419 51.390302 129.38559 51.239777 129.35076 51.180339 L 129.2872 51.072335 z M 88.256112 82.514343 L 89.610551 82.514343 L 89.610551 83.848112 L 88.256112 83.848112 L 88.256112 82.514343 z " />
    <ellipse
       style="display:inline;fill:none;stroke:#bfd8c3;stroke-width:1.6;stroke-miterlimit:4;stroke-dasharray:none;stroke-opacity:1"
       id="path175"
       cx="102.30589"
       cy="72.421951"
       rx="56.203999"
       ry="56.204498" />
    <ellipse
       style="display:inline;fill:none;stroke:#bfd8c3;stroke-width:2.5;stroke-miterlimit:4;stroke-dasharray:none;stroke-opacity:1"
       id="ellipse8692"
       cx="102.30589"
       cy="72.421951"
       rx="53.038013"
       ry="53.038486" />
    <g
       aria-label="iowa"
       id="text12612"
       style="font-size:21.1667px;line-height:1.25;fill:#bfd8c3;stroke-width:0.264583">
      <path
         d="m 81.97048,37.789609 v -1.333503 h 1.354669 v 1.333503 z m 0.232834,13.102187 V 40.647113 h 0.889001 v 10.244683 z"
         style="font-weight:200;font-family:'Nunito Sans';-inkscape-font-specification:'Nunito Sans Ultra-Light'"
         id="path36159" />
      <path
         d="m 90.604179,51.06113 q -1.397002,0 -2.434171,-0.656168 -1.016001,-0.656168 -1.587502,-1.841503 -0.550334,-1.185335 -0.550334,-2.794004 0,-1.60867 0.550334,-2.794005 0.571501,-1.185335 1.587502,-1.841503 1.037169,-0.656167 2.434171,-0.656167 1.397002,0 2.413004,0.656167 1.037168,0.656168 1.587502,1.841503 0.571501,1.185335 0.571501,2.794005 0,1.608669 -0.571501,2.794004 -0.550334,1.185335 -1.587502,1.841503 -1.016002,0.656168 -2.413004,0.656168 z m 0,-0.825502 q 1.693336,0 2.667004,-1.164168 0.994835,-1.185335 0.994835,-3.302005 0,-2.11667 -0.994835,-3.280839 -0.973668,-1.185335 -2.667004,-1.185335 -1.672169,0 -2.667004,1.185335 -0.994835,1.164169 -0.994835,3.280839 0,2.11667 0.994835,3.302005 0.994835,1.164168 2.667004,1.164168 z"
         style="font-weight:200;font-family:'Nunito Sans';-inkscape-font-specification:'Nunito Sans Ultra-Light'"
         id="path36161" />
      <path
         d="M 100.60015,50.891796 97.001814,40.647113 h 0.973668 l 3.407838,9.969516 h -0.55033 l 3.57717,-9.969516 h 1.10067 l 3.4925,9.969516 H 108.453 l 3.4925,-9.969516 h 0.95251 l -3.64068,10.244683 h -1.03717 L 104.64299,40.79528 h 0.65617 l -3.64067,10.096516 z"
         style="font-weight:200;font-family:'Nunito Sans';-inkscape-font-specification:'Nunito Sans Ultra-Light'"
         id="path36163" />
      <path
         d="m 118.40796,51.06113 q -0.99483,0 -1.79917,-0.402168 -0.80433,-0.402167 -1.27,-1.079501 -0.46567,-0.698501 -0.46567,-1.545169 0,-1.143002 0.55034,-1.778003 0.5715,-0.656168 1.92617,-0.910168 1.37583,-0.275167 3.76767,-0.275167 h 0.86784 v 0.783167 h -0.82551 q -1.56633,0 -2.6035,0.105834 -1.03717,0.08467 -1.62984,0.338667 -0.59266,0.232834 -0.84666,0.635001 -0.23284,0.402167 -0.23284,1.016002 0,1.016001 0.6985,1.672169 0.71967,0.635001 1.92617,0.635001 0.97367,0 1.69334,-0.465667 0.74083,-0.486834 1.16417,-1.291169 0.42333,-0.825501 0.42333,-1.86267 v -2.413004 q 0,-1.524002 -0.59267,-2.222503 -0.59266,-0.698501 -1.905,-0.698501 -0.9525,0 -1.79917,0.275167 -0.8255,0.275167 -1.73567,0.889001 l -0.42333,-0.762001 q 0.55033,-0.381 1.18533,-0.656168 0.65617,-0.275167 1.35467,-0.423334 0.6985,-0.148166 1.37584,-0.148166 1.16417,0 1.92617,0.402167 0.762,0.402167 1.12183,1.227668 0.381,0.825502 0.381,2.11667 v 6.667511 h -0.86783 v -2.561171 h 0.23283 q -0.21166,0.846668 -0.71967,1.460503 -0.508,0.613834 -1.24883,0.952501 -0.71967,0.317501 -1.62984,0.317501 z"
         style="font-weight:200;font-family:'Nunito Sans';-inkscape-font-specification:'Nunito Sans Ultra-Light'"
         id="path36165" />
    </g>
    <path
       d="m 100.59386,94.490873 c 0.005,-0.01109 0.0115,-0.02036 0.016,-0.03152 0.0811,-0.201966 0.14646,-0.416044 0.19585,-0.641822 h -0.21187 z"
       style="font-weight:200;font-family:'Nunito Sans';-inkscape-font-specification:'Nunito Sans Ultra-Light'"
       id="path23" />
    <path
       d="m 100.57267,88.723267 v 0.712618 h 0.23306 c -0.0494,-0.225778 -0.11471,-0.439188 -0.19585,-0.640271 -0.0104,-0.02571 -0.0263,-0.04704 -0.0372,-0.07235 z"
       style="font-weight:200;font-family:'Nunito Sans';-inkscape-font-specification:'Nunito Sans Ultra-Light'"
       id="path22" />
    <path
       d="m 105.95581,88.572371 c -0.001,0.0024 -0.003,0.0043 -0.004,0.0067 -0.0961,0.194028 -0.17956,0.402002 -0.25011,0.624252 h 0.25425 z"
       style="font-weight:200;font-family:'Nunito Sans';-inkscape-font-specification:'Nunito Sans Ultra-Light'"
       id="path19" />
    <g
       id="g26"
       style="fill:#bfd8c3;fill-opacity:1"
       inkscape:export-filename="ialightlogo.svg"
       inkscape:export-xdpi="96"
       inkscape:export-ydpi="96">
      <path
         d="m 83.548905,91.252828 c -0.238522,-4.19e-4 -0.664276,-0.0011 -0.889351,-0.0015 v 2.608626 c 0,0.257528 0.01497,0.500882 0.04496,0.730188 0.02999,0.229306 0.0749,0.444355 0.134875,0.645439 0.05997,0.201083 0.135351,0.388345 0.225309,0.561206 0.08996,0.17286 0.194765,0.331818 0.31471,0.476456 0.123472,0.141112 0.259043,0.26417 0.40721,0.370004 0.148167,0.105833 0.308763,0.194027 0.481624,0.264583 0.172862,0.07056 0.357966,0.123885 0.555522,0.159163 0.197556,0.03528 0.407686,0.05271 0.629936,0.05271 0.155222,0 0.317459,-0.01417 0.486792,-0.04237 0.169333,-0.01413 0.345721,-0.04242 0.529166,-0.08475 l 0.06356,-0.825272 c -0.155222,0.04235 -0.317458,0.07722 -0.486792,0.10542 -0.155222,0.01413 -0.324534,0.02119 -0.507979,0.02119 -0.218722,0 -0.419619,-0.02287 -0.603064,-0.06873 -0.183445,-0.04586 -0.349477,-0.114465 -0.497644,-0.206189 -0.148166,-0.09878 -0.278818,-0.220714 -0.391707,-0.365352 -0.112889,-0.144638 -0.20816,-0.311795 -0.285771,-0.502295 -0.07056,-0.197556 -0.123369,-0.416401 -0.158647,-0.656291 -0.03528,-0.239889 -0.05271,-0.501191 -0.05271,-0.783414 z"
         style="font-weight:200;font-family:'Nunito Sans';-inkscape-font-specification:'Nunito Sans Ultra-Light';fill:#bfd8c3;fill-opacity:1"
         id="path25" />
      <path
         d="m 89.378007,91.261096 c -0.336305,-3.99e-4 -0.569047,-6.35e-4 -0.889351,-0.001 v 5.690092 h 0.889351 z"
         style="font-weight:200;font-family:'Nunito Sans';-inkscape-font-specification:'Nunito Sans Ultra-Light';fill:#bfd8c3;fill-opacity:1"
         id="path24" />
      <path
         d="m 101.46151,91.273499 c -0.3825,-3.22e-4 -0.49065,-1.68e-4 -0.8909,-5.17e-4 0.006,0.115973 0.0233,0.22253 0.0233,0.343131 0,0.324555 -0.0206,0.633085 -0.062,0.925008 -0.0415,0.291923 -0.10365,0.567532 -0.18655,0.826823 -0.0829,0.259292 -0.18674,0.501978 -0.3111,0.728638 -0.124351,0.22666 -0.269305,0.436941 -0.435111,0.630969 -0.165806,0.194028 -0.346143,0.364009 -0.541053,0.50953 -0.19491,0.145521 -0.404371,0.266788 -0.628385,0.363802 -0.224014,0.09701 -0.462601,0.169567 -0.715719,0.218075 -0.253118,0.04851 -0.520829,0.07286 -0.803051,0.07286 -0.282223,0 -0.549934,-0.02436 -0.803052,-0.07286 -0.253118,-0.04851 -0.491705,-0.121061 -0.715719,-0.218075 -0.224014,-0.09701 -0.433475,-0.218281 -0.628385,-0.363802 -0.19491,-0.145521 -0.375247,-0.315502 -0.541052,-0.50953 -0.165806,-0.194028 -0.310762,-0.404309 -0.435116,-0.630969 -0.124354,-0.22666 -0.228189,-0.469346 -0.311092,-0.728638 -0.0829,-0.259291 -0.145101,-0.5349 -0.186552,-0.826823 -0.04145,-0.291923 -0.06201,-0.600453 -0.06201,-0.925008 0,-0.12277 0.01732,-0.231357 0.02325,-0.349332 -0.423408,-4.32e-4 -0.512666,-0.0011 -0.917257,-0.0016 -0.0052,0.117183 -0.01602,0.230112 -0.01602,0.350883 0,0.250472 0.01118,0.493828 0.03411,0.730188 0.02293,0.236361 0.05749,0.466081 0.103353,0.68833 0.04586,0.22225 0.10329,0.4373 0.172082,0.645439 0.06879,0.208139 0.14909,0.409036 0.240812,0.603064 0.09525,0.1905 0.200057,0.370837 0.31471,0.541052 0.114653,0.170215 0.239048,0.33066 0.373104,0.480591 0.134055,0.149931 0.277523,0.28945 0.430981,0.419096 0.153458,0.129646 0.317031,0.249273 0.489893,0.358634 0.172861,0.105834 0.353349,0.198128 0.542085,0.277503 0.188737,0.07937 0.385534,0.145521 0.590145,0.198437 0.204611,0.05292 0.417201,0.09292 0.637687,0.119373 0.220487,0.02646 0.448869,0.03979 0.68523,0.03979 0.243417,0 0.478207,-0.01579 0.704866,-0.04754 0.22666,-0.03175 0.445355,-0.07964 0.655258,-0.143143 0.209902,-0.0635 0.411468,-0.142979 0.604614,-0.238229 0.193146,-0.09525 0.377582,-0.206313 0.553971,-0.333313 0.176389,-0.130528 0.336986,-0.273023 0.481625,-0.427364 0.144638,-0.15434 0.273648,-0.320524 0.386538,-0.498677 0.10665,-0.16831 0.19661,-0.348906 0.27492,-0.538469 v -0.673344 h 0.21187 c -0.0494,0.225778 -0.11471,0.439856 -0.19585,0.641822 -0.004,0.01116 -0.0114,0.02044 -0.016,0.03152 v 2.141988 c 0,0.278695 -0.0173,0.54097 -0.0517,0.787032 -0.0344,0.246063 -0.0857,0.475933 -0.15451,0.689364 -0.0688,0.213431 -0.15519,0.41038 -0.25838,0.591178 -0.10319,0.180799 -0.223119,0.345344 -0.360703,0.49351 -0.137583,0.151693 -0.291103,0.284656 -0.460437,0.398426 -0.169333,0.113769 -0.354955,0.208373 -0.556038,0.28422 -0.201084,0.07585 -0.417773,0.132609 -0.650606,0.170529 -0.232834,0.0379 -0.481625,0.0568 -0.746208,0.0568 -0.261056,0 -0.511486,-0.0104 -0.751375,-0.0315 -0.23989,-0.0212 -0.469091,-0.0528 -0.687814,-0.09508 -0.211667,-0.04233 -0.41964,-0.100583 -0.624251,-0.174666 -0.204611,-0.07408 -0.406025,-0.164435 -0.603581,-0.270268 -0.197556,-0.09878 -0.402249,-0.213122 -0.613916,-0.343648 -0.211667,-0.130527 -0.429996,-0.276974 -0.655774,-0.43925 l -0.423747,0.719336 c 0.148167,0.119945 0.300716,0.232495 0.45682,0.337447 0.156104,0.104952 0.316032,0.202529 0.480074,0.292489 0.164042,0.09 0.331866,0.17256 0.503845,0.24753 0.17198,0.075 0.348217,0.14208 0.528134,0.20205 0.183444,0.0635 0.370189,0.11929 0.560689,0.16692 0.1905,0.0476 0.384321,0.0871 0.581876,0.11886 0.197556,0.0318 0.39897,0.056 0.603581,0.0718 0.204611,0.0159 0.412585,0.0238 0.624252,0.0238 0.229305,0 0.448971,-0.0109 0.658874,-0.032 0.209903,-0.0212 0.40998,-0.0528 0.60048,-0.0951 0.1905,-0.0423 0.371505,-0.0951 0.542603,-0.15864 0.171097,-0.0635 0.332513,-0.13755 0.484208,-0.22221 0.151695,-0.0811 0.29419,-0.17313 0.427364,-0.27544 0.13317,-0.1023 0.2569,-0.215006 0.37155,-0.338479 0.11466,-0.123472 0.22013,-0.257404 0.31626,-0.402042 0.0961,-0.144639 0.18284,-0.2998 0.26045,-0.465605 0.0776,-0.165806 0.1454,-0.341374 0.20361,-0.526583 0.0582,-0.185209 0.10692,-0.380366 0.14573,-0.584977 0.0388,-0.204611 0.0679,-0.418841 0.0873,-0.642855 0.0194,-0.224014 0.0289,-0.457833 0.0289,-0.701249 z"
         style="font-weight:200;font-family:'Nunito Sans';-inkscape-font-specification:'Nunito Sans Ultra-Light';fill:#bfd8c3;fill-opacity:1"
         id="path20" />
      <path
         d="m 105.95581,91.275566 c -0.29898,-1.73e-4 -0.57486,-3.13e-4 -0.88935,-5.17e-4 v 5.675106 h 0.88935 z"
         style="font-weight:200;font-family:'Nunito Sans';-inkscape-font-specification:'Nunito Sans Ultra-Light';fill:#bfd8c3;fill-opacity:1"
         id="path18" />
      <path
         d="m 113.21583,91.278666 c -0.18824,1.11e-4 -0.6886,-5.89e-4 -0.88884,-5.17e-4 v 5.672006 h 0.88884 z"
         style="font-weight:200;font-family:'Nunito Sans';-inkscape-font-specification:'Nunito Sans Ultra-Light';fill:#bfd8c3;fill-opacity:1"
         id="path16" />
      <path
         d="m 118.03621,91.273499 c -0.31997,0.0014 -0.48596,0.0037 -0.88884,0.0046 v 2.369882 c 0,0.275166 0.0166,0.534982 0.0501,0.77928 0.0335,0.244299 0.0839,0.473349 0.15089,0.68678 0.067,0.213431 0.15061,0.411199 0.25115,0.593762 0.10054,0.182563 0.21786,0.350083 0.35192,0.501778 0.13405,0.151695 0.28511,0.284138 0.45268,0.397909 0.16757,0.113771 0.35186,0.20889 0.55294,0.284737 0.20108,0.07585 0.41859,0.132609 0.65319,0.170532 0.2346,0.03792 0.48636,0.05684 0.75448,0.05684 0.14111,0 0.28755,-0.01087 0.43925,-0.03204 0.15169,-0.02117 0.30849,-0.05275 0.47077,-0.09508 0.16227,-0.03528 0.3,-0.0723 0.41289,-0.111104 0.11289,-0.0388 0.20109,-0.07911 0.26459,-0.12144 l -0.21188,-0.74104 c -0.15522,0.05645 -0.35284,0.120133 -0.59273,0.190686 -0.22578,0.05647 -0.46533,0.08423 -0.71933,0.08423 -0.2152,0 -0.41512,-0.01497 -0.59945,-0.04496 -0.18433,-0.02999 -0.35349,-0.0749 -0.50694,-0.134875 -0.15346,-0.05997 -0.29134,-0.134834 -0.41393,-0.224793 -0.12259,-0.08996 -0.22971,-0.194764 -0.32143,-0.314709 -0.0917,-0.123472 -0.17202,-0.260381 -0.24081,-0.410311 -0.0688,-0.14993 -0.12622,-0.312987 -0.17208,-0.489376 -0.0459,-0.176389 -0.0799,-0.366109 -0.10284,-0.568957 -0.0229,-0.202848 -0.0346,-0.418716 -0.0346,-0.648023 z"
         style="font-weight:200;font-family:'Nunito Sans';-inkscape-font-specification:'Nunito Sans Ultra-Light';fill:#bfd8c3;fill-opacity:1"
         id="path15" />
    </g>
  </g>
</svg>
