<?xml version="1.0" encoding="UTF-8" standalone="no"?>
<!DOCTYPE svg PUBLIC "-//W3C//DTD SVG 1.1//EN" "http://www.w3.org/Graphics/SVG/1.1/DTD/svg11.dtd">
<svg width="100%" height="100%" viewBox="0 0 1122 502" version="1.1"
  xmlns="http://www.w3.org/2000/svg" xmlns:xlink="http://www.w3.org/1999/xlink" xml:space="preserve"
  xmlns:serif="http://www.serif.com/"
  style="fill-rule:evenodd;clip-rule:evenodd;stroke-linejoin:round;stroke-miterlimit:2;"><rect x="-198.883" y="-310.138" width="1974" height="1162" style="fill:transparent;"/><g id="Palette"></g><g><g id="IA---Top" serif:id="IA - Top"><path d="M0,336.401l670.865,-335.433c0.591,-0.296 1.653,-0.89 2.459,-0.96c0.846,-0.074 1.861,0.38 2.493,0.598l5.056,1.7l24.929,7.883c6.908,1.945 14.179,4.157 22.416,4.648c10.161,0.606 21.383,-0.622 30.51,1.921c4.586,1.274 5.881,3.026 7.681,5.408c2.142,2.835 5.15,8.405 8.433,10.582c1.945,1.292 6.548,1.591 9.67,2.036c3.918,0.559 8.031,1.612 10.897,3.007l10.042,5.021c1.487,0.741 2.949,1.326 4.885,1.785c4.233,1.007 9.578,0.203 13.812,-1.018c8.081,-2.331 14.581,-6.062 24.061,-8.389c8.471,-2.077 18.607,-2.756 27.28,-2.029c6.801,0.571 16.926,2.562 23.72,3.731c1.868,0.321 4.868,0.774 6.86,0.793c2.945,0.028 3.489,-0.534 4.661,-0.362c0.593,0.086 1.458,0.56 1.905,0.783c2.493,1.241 3.586,1.867 7.034,2.561c6.871,1.382 18.922,0.507 26.405,-0.637l16.66,-2.916c5.202,-0.595 10.583,-0.408 15.681,-0.187c6.046,0.261 12.631,0.645 18.43,1.355c4.307,0.526 10.816,1.534 15.011,1.743c6.866,0.344 11.16,-0.776 14.715,-0.727c4.655,0.064 8.265,1.573 11.218,3.088c3.947,2.027 8.023,6.302 9.169,9.156c0.87,2.179 1.15,5.802 2.628,7.671c2.19,2.776 6.577,3.907 10.486,5.855c2.64,1.315 4.493,2.188 5.5,4.121c1.074,2.061 0.035,4.16 -0.645,6.297c-0.766,2.402 -0.963,3.309 -0.631,5.704c0.672,4.795 4.987,9.276 4.28,14.199c-0.465,3.25 -2.648,6.426 -6.129,9.337l-8.722,6.589l-8.013,9.014c-2.411,2.363 -6.481,5.099 -10.27,6.998c-5.361,2.688 -14.755,6.936 -11.147,10.859c2.021,2.197 9.275,4.067 11.396,6.986c2.359,3.239 2.685,8.995 7.641,11.242c1.426,0.648 3.49,1.082 5.464,1.232c8.324,0.634 14.183,-2.34 22.276,-3.031c6.121,-0.521 9.738,0.971 13.448,2.874c3.262,1.675 5.658,4.48 7.14,6.736l4.205,7.938l2.387,5.413c2.421,3.948 7.705,6.132 9.892,9.853c1.327,2.261 1.095,4.51 0.384,6.921c-1.035,3.496 -2.848,6.741 -5.984,10.029l-10.692,9.746c-3.509,3.652 -8.1,9.237 -1.699,12.16c4.192,1.915 11.239,1.639 16.481,2.594c3.4,0.617 6.212,2.168 7.876,3.725c1.422,1.329 1.875,2.804 1.657,4.382c-0.3,2.188 -1.582,4.951 2.058,6.445c0.936,0.385 2.263,0.697 3.373,0.956c-0.692,0.346 -2.259,1.193 -3.056,1.369c-1.068,0.238 -3.226,0.014 -4.442,0.001c-2.284,-0.023 -4,0.143 -6.263,0.331c-7.19,0.598 -13.322,1.27 -20.473,0.881c-8.372,-0.454 -14.115,-2.103 -23.918,-1.758c-17.92,0.631 -29.494,7.308 -41.738,13.446l-4.766,2.648l-466.38,233.19c-1.279,0.639 -7.046,3.644 -8.098,3.89c-0.867,0.204 -1.801,0.171 -2.693,0.184c3.034,1.931 -0.47,3.266 -4.72,3.147c-4.255,-0.118 -9.49,-2.981 -13.573,-3.514c-4.862,-0.631 -13.43,1.435 -17.736,-1.173c-1.542,-0.934 -2.68,-2.719 -3.852,-3.888l-2.592,-2.403l-3.08,-4.274l-2.504,-2.712c-0.887,-1.242 -1.45,-3.775 -2.859,-4.648c-1.398,-0.871 -5.575,-1.311 -7.751,-1.674c-2.282,-0.381 -4.381,-1.173 -5.997,-2.022l-8.391,-5.054l-7.664,-2.509c-2.67,-0.936 -5.009,-2.076 -7.297,-3.223l-4.197,-2.394c-4.885,-2.451 -8.628,-4.432 -15.32,-5.816c-2.949,-0.611 -5.681,-1.042 -9.073,-0.968c-3.821,0.081 -6.404,0.982 -11.113,0.226c-4.914,-0.859 -7.742,-3.774 -11.098,-5.549c-1.705,-0.823 -4.997,-2.8 -7.387,-2.9c-3.523,-0.146 -5.145,1.457 -8.417,1.825c-4.117,0.463 -5.96,-1.412 -8.126,-2.551c-1.5,-0.788 -3.105,-1.437 -5.509,-1.458c-0.959,-0.009 -2.129,0.06 -2.618,0.585c-0.785,0.841 1.526,2.213 -0.915,3.747c-2.513,1.582 -7.881,1.597 -10.561,0.585c-4.252,-1.605 -6.351,-5.809 -9.845,-8.29c-2.37,-1.682 -7.296,-2.34 -10.334,-3.818c-6.348,-3.094 -5.316,-6.316 -12.946,-8.325c-7.787,-2.047 -13.587,-1.937 -21.402,-3.04l-9.192,-1.746l-26.795,-2.986c-4.397,-0.349 -10.253,0.407 -16.594,-0.16c-6.011,-0.537 -6.336,-1.345 -10.916,-2.469l-9.848,-1.947c-3.755,-1.063 -6.253,-2.602 -9.282,-4.079c-3.647,-1.776 -9.014,-3.252 -13.822,-4.188c-3.466,-0.674 -8.922,-1.41 -11.302,-2.804c-4.381,-2.569 -8.613,-6.571 -17.187,-5.286c-1.65,0.247 -3.66,0.805 -5.182,1.257c-1.999,0.592 -3.087,0.933 -4.785,1.75c-2.933,-1.369 -9.083,-2.118 -13.004,-2.747l-17.97,-2.906c-5.786,-0.505 -11.3,0.378 -15.477,-2.039c-4.14,-2.396 -6.706,-6.493 -7.496,-9.729c-0.879,-3.606 -0.066,-6.555 -5.298,-9.242c-3.315,-1.699 -7.928,-3.668 -10.462,-5.604c-4.22,-3.222 -4.315,-5.117 -10.33,-8.047c-4.181,-2.035 -8.755,-1.685 -11.882,-3.044c-1.985,-0.862 -2.364,-2.33 -3.366,-3.074c-1.252,-0.925 -3.591,-1.396 -5.788,-1.598c-2.998,-0.277 -7.316,-0.113 -10.409,0.279c-3.246,0.413 -3.902,0.952 -5.389,1.088c-1.96,0.177 -3.595,-0.502 -4.746,-1.136c-2.407,-1.328 -1.734,-2.912 -4.095,-4.031c-3.13,-1.484 -7.978,-1.938 -11.162,-3.932c-3.071,-1.923 -3.691,-4.32 -8.335,-6.138c-3.606,-1.413 -8.084,-0.894 -12.194,-1.567c-3.371,-0.549 -4.761,-1.351 -7.119,-2.518l-3.467,-1.437Z" style="fill:#d86a52;fill-rule:nonzero;"/><path d="M330.828,432.878c-1.393,-1.285 -3.072,-2.446 -6.532,-3.357c-7.787,-2.047 -13.587,-1.937 -21.402,-3.04l-9.192,-1.746l-26.795,-2.986c-4.397,-0.349 -10.253,0.407 -16.594,-0.16c-6.011,-0.537 -6.336,-1.345 -10.916,-2.469l-9.848,-1.947c-3.755,-1.063 -6.253,-2.602 -9.282,-4.079c-3.647,-1.776 -9.014,-3.252 -13.822,-4.188c-3.466,-0.674 -8.922,-1.41 -11.302,-2.804c-4.381,-2.569 -8.613,-6.571 -17.187,-5.286c-1.65,0.247 -3.66,0.805 -5.182,1.257c-1.999,0.592 -3.087,0.933 -4.785,1.75c-2.933,-1.369 -9.083,-2.118 -13.004,-2.747l-17.97,-2.906c-5.786,-0.505 -11.3,0.378 -15.477,-2.039c-4.14,-2.396 -6.706,-6.493 -7.496,-9.729c-0.879,-3.606 -0.066,-6.555 -5.298,-9.242c-3.315,-1.699 -7.928,-3.668 -10.462,-5.604c-4.22,-3.222 -4.315,-5.117 -10.33,-8.047c-4.181,-2.035 -8.755,-1.685 -11.882,-3.044c-1.985,-0.862 -2.364,-2.33 -3.366,-3.074c-1.252,-0.925 -3.591,-1.396 -5.788,-1.598c-2.998,-0.277 -7.316,-0.113 -10.409,0.279c-3.246,0.413 -3.902,0.952 -5.389,1.088c-1.96,0.177 -3.595,-0.502 -4.746,-1.136c-2.407,-1.328 -1.734,-2.912 -4.095,-4.031c-3.13,-1.484 -7.978,-1.938 -11.162,-3.932c-3.071,-1.923 -3.691,-4.32 -8.335,-6.138c-3.606,-1.413 -8.084,-0.894 -12.194,-1.567c-3.371,-0.549 -4.761,-1.351 -7.119,-2.518l-3.467,-1.437l670.865,-335.433c0.591,-0.296 1.653,-0.89 2.459,-0.96c0.846,-0.074 1.861,0.38 2.493,0.598l5.056,1.7l24.929,7.883c6.908,1.945 14.179,4.157 22.416,4.648c10.161,0.606 21.383,-0.622 30.51,1.921c4.586,1.274 5.881,3.026 7.681,5.408c2.142,2.835 5.15,8.405 8.433,10.582c1.945,1.292 6.548,1.591 9.67,2.036c3.918,0.559 8.031,1.612 10.897,3.007l10.042,5.021c1.487,0.741 2.949,1.326 4.885,1.785c4.233,1.007 9.578,0.203 13.812,-1.018c8.081,-2.331 14.581,-6.062 24.061,-8.389c8.471,-2.077 18.607,-2.756 27.28,-2.029c6.801,0.571 16.926,2.562 23.72,3.731c1.868,0.321 4.868,0.774 6.86,0.793c2.945,0.028 3.489,-0.534 4.661,-0.362c0.593,0.086 1.458,0.56 1.905,0.783c2.493,1.241 3.586,1.867 7.034,2.561c6.871,1.382 18.922,0.507 26.405,-0.637l16.66,-2.916c5.202,-0.595 10.583,-0.408 15.681,-0.187c6.046,0.261 12.631,0.645 18.43,1.355c4.307,0.526 10.816,1.534 15.011,1.743c6.866,0.344 11.16,-0.776 14.715,-0.727c4.655,0.064 8.265,1.573 11.218,3.088c3.947,2.027 8.023,6.302 9.169,9.156c0.87,2.179 1.15,5.802 2.628,7.671c2.19,2.776 6.577,3.907 10.486,5.855c2.64,1.315 4.493,2.188 5.5,4.121c1.074,2.061 0.035,4.16 -0.645,6.297c-0.766,2.402 -0.963,3.309 -0.631,5.704c0.672,4.795 4.987,9.276 4.28,14.199c-0.465,3.25 -2.648,6.426 -6.129,9.337l-8.722,6.589l-8.013,9.014c-2.411,2.363 -6.481,5.099 -10.27,6.998c-5.361,2.688 -14.755,6.936 -11.147,10.859c2.021,2.197 9.275,4.067 11.396,6.986c2.359,3.239 2.685,8.995 7.641,11.242c1.426,0.648 3.49,1.082 5.464,1.232c8.324,0.634 14.183,-2.34 22.276,-3.031c6.121,-0.521 9.738,0.971 13.448,2.874c3.262,1.675 5.658,4.48 7.14,6.736l4.205,7.938l2.387,5.413c2.421,3.948 7.705,6.132 9.892,9.853c1.327,2.261 1.095,4.51 0.384,6.921c-1.035,3.496 -2.848,6.741 -5.984,10.029l-10.692,9.746c-3.509,3.652 -8.1,9.237 -1.699,12.16c4.192,1.915 11.239,1.639 16.481,2.594c3.4,0.617 6.212,2.168 7.876,3.725c1.422,1.329 1.875,2.804 1.657,4.382c-0.3,2.188 -1.582,4.951 2.058,6.445c0.936,0.385 2.263,0.697 3.373,0.956c-0.692,0.346 -2.259,1.193 -3.056,1.369c-1.068,0.238 -3.226,0.014 -4.442,0.001c-2.284,-0.023 -4,0.143 -6.263,0.331c-7.19,0.598 -13.322,1.27 -20.473,0.881c-8.372,-0.454 -14.115,-2.103 -23.918,-1.758c-17.92,0.631 -29.494,7.308 -41.738,13.446l-4.766,2.648l-466.38,233.19c-1.279,0.639 -7.046,3.644 -8.098,3.89c-0.867,0.204 -1.801,0.171 -2.693,0.184c3.034,1.931 -0.47,3.266 -4.72,3.147c-4.255,-0.118 -9.49,-2.981 -13.573,-3.514c-4.862,-0.631 -13.43,1.435 -17.736,-1.173c-1.542,-0.934 -2.68,-2.719 -3.852,-3.888l-2.592,-2.403l-3.08,-4.274l-2.504,-2.712c-0.887,-1.242 -1.45,-3.775 -2.859,-4.648c-1.398,-0.871 -5.575,-1.311 -7.751,-1.674c-2.282,-0.381 -4.381,-1.173 -5.997,-2.022l-8.391,-5.054l-7.664,-2.509c-2.67,-0.936 -5.009,-2.076 -7.297,-3.223l-4.197,-2.394c-4.885,-2.451 -8.628,-4.432 -15.32,-5.816c-2.949,-0.611 -5.681,-1.042 -9.073,-0.968c-3.821,0.081 -6.404,0.982 -11.113,0.226c-4.914,-0.859 -7.742,-3.774 -11.098,-5.549c-1.705,-0.823 -4.997,-2.8 -7.387,-2.9c-3.523,-0.146 -5.145,1.457 -8.417,1.825c-4.117,0.463 -5.96,-1.412 -8.126,-2.551c-1.5,-0.788 -3.105,-1.437 -5.509,-1.458c-0.959,-0.009 -2.129,0.06 -2.618,0.585c-0.785,0.841 1.526,2.213 -0.915,3.747c-2.513,1.582 -7.881,1.597 -10.561,0.585c-4.252,-1.605 -6.351,-5.809 -9.845,-8.29c-2.37,-1.682 -7.296,-2.34 -10.334,-3.818c-2.768,-1.349 -4.132,-2.722 -5.424,-4.008c0.493,-2.431 1.121,-4.819 1.917,-7.059c-1.261,2.065 -2.191,4.115 -2.907,6.099Zm196.497,30.76c-0.137,-0.108 -0.272,-0.214 -0.407,-0.318c0.862,1.271 1.366,2.053 1.366,2.053c0,-0 -0.409,-0.758 -0.959,-1.735Zm-272.627,-82.772c0.732,0.226 1.195,0.376 1.195,0.376c-0,0 -0.509,-0.226 -1.195,-0.376Zm-101.374,-6.073c0.553,2.035 0.865,3.374 0.865,3.374c-0,-0 -0.192,-0.976 -0.317,-1.488c-0.148,-0.609 -0.331,-1.24 -0.548,-1.886Zm849.555,-205.062c-2.105,-3.25 -3.325,-5.466 -3.325,-5.466c0,-0 1.903,3.537 2.97,5.009l0.012,0.017c0.103,0.14 0.217,0.287 0.343,0.44Zm-480.244,287.561c0.104,0.003 0.207,0.006 0.308,0.009l-1.114,-1.371l1.27,1.375c1.45,0.044 2.741,0.12 3.67,0.24l0.009,0.002c0.354,0.046 0.745,0.109 1.166,0.186l4.594,-0.066l465.272,-232.636l4.748,-2.637l0.776,-0.389c14.264,-7.15 28.1,-14.11 46.812,-16.742c0.883,-2.29 1.905,-4.549 3.054,-6.739c-2.373,0.175 -4.846,0.206 -7.508,0.004c-7.007,-0.532 -14.237,-2.48 -19.304,-4.779c-7.793,-3.539 -15.147,-12.134 -20.179,-19.136c-4.594,-2.89 -10.189,-6.604 -12.091,-8.671l-0.001,-0.002c-11.786,-12.815 -13.505,-26.298 -10.527,-39.292c1.523,-6.642 4.767,-13.736 10.688,-20.269c4.971,-5.486 15.274,-11.936 22.788,-15.703c0.084,-0.042 0.185,-0.099 0.292,-0.161l2.651,-2.982c-0.938,-0.939 -1.806,-1.906 -2.594,-2.903c-0.728,-0.922 -1.494,-2.165 -2.264,-3.587c-1.798,0.031 -3.621,0.017 -5.342,-0.069c-5.009,-0.25 -12.791,-1.367 -17.939,-1.995l-0.006,-0.001c-4.79,-0.586 -10.23,-0.874 -15.218,-1.09c-2.707,-0.117 -5.551,-0.34 -8.335,-0.126l-15.604,2.73l-0.436,0.067c-11.527,1.762 -30.102,2.432 -40.69,0.303l-0.003,-0.001c-3.858,-0.776 -6.521,-1.478 -8.864,-2.304c-3.525,-0.239 -7.65,-0.776 -10.456,-1.259c-5.79,-0.996 -14.4,-2.793 -20.196,-3.281c-4.478,-0.374 -9.714,-0.079 -14.087,0.993c-8.865,2.177 -14.905,5.782 -22.465,7.963c-10.603,3.058 -24.049,4.033 -34.652,1.514c-5.426,-1.288 -9.534,-2.905 -13.724,-4.994c0,-0 -9.589,-4.795 -9.591,-4.796c0.343,0.198 0.709,0.608 1.174,0.675c-8.801,-1.256 -21.056,-4.822 -26.55,-8.465c-3.884,-2.58 -8.093,-7.072 -11.779,-11.497c-4.779,-0.013 -9.864,0.637 -14.61,0.354c-11.399,-0.679 -21.527,-3.417 -31.716,-6.286l-17.482,-5.528l-568.09,284.045c6.317,3.501 11.46,7.876 14.016,10.226c1.511,0.74 3.73,1.833 4.953,2.459l0.015,0.008c10.323,5.302 15.703,11.544 19.416,17.318c0.054,0.083 0.107,0.168 0.161,0.254c5.763,0.932 14.477,2.342 14.477,2.342c1.419,0.228 2.985,0.502 4.627,0.814c1.951,-0.468 3.948,-0.881 5.737,-1.149c18.677,-2.796 29.741,2.259 39.516,7.855c1.061,0.196 2.184,0.406 2.868,0.539l0.006,0.001c8.358,1.627 17.597,4.484 23.941,7.573l0.004,0.002c0.782,0.381 1.947,0.97 2.828,1.417l7.208,1.425l0.906,0.223c1.838,0.451 3.94,1.075 5.297,1.492c5.992,0.469 11.528,-0.247 16.335,0.135l29.006,3.233c0,-0 9.727,1.847 9.74,1.849c9.081,1.23 15.973,1.439 25.182,3.86l0.01,0.002c9.785,2.578 17.835,8.1 22.339,11.718c2.213,0.868 4.913,1.964 7.437,3.09c2.456,-0.435 4.935,-0.665 7.379,-0.642c6.469,0.059 11.64,1.066 16.191,2.635c2.445,-0.324 4.938,-0.511 7.188,-0.418l0.008,0.001c7.378,0.308 18.23,4.399 24.177,7.269l0.67,0.355c0.329,0.174 0.701,0.381 1.098,0.61c0.374,-0.018 0.731,-0.031 1.06,-0.038c6.82,-0.147 12.329,0.582 18.259,1.809c11.049,2.285 17.336,5.274 25.402,9.321l0.978,0.491c0,0 4.493,2.563 4.499,2.566c0.303,0.151 0.616,0.296 0.957,0.427l11.509,3.768l8.444,5.086c6.515,1.561 14.789,4.275 18.195,6.38c3.706,2.335 8.453,8.086 12.106,12.991Zm486.76,-389.376c-0.97,-2.558 -1.582,-4.332 -1.582,-4.332c-0,0 0.702,2.246 1.095,3.231c0.138,0.343 0.301,0.712 0.487,1.101Z" style="fill:#d86a52;"/></g></g><path d="M641.85,189.62c37.945,-18.972 99.556,-18.972 137.5,-0c37.945,18.972 37.945,49.778 0,68.75c-37.944,18.972 -99.555,18.972 -137.5,-0c-37.944,-18.972 -37.944,-49.778 0,-68.75Z" style="fill:#4994a5;"/><path d="M641.85,120.87c37.945,18.972 68.75,65.181 68.75,103.125c0,37.944 -30.805,53.347 -68.75,34.375c-37.944,-18.972 -68.75,-65.181 -68.75,-103.125c0,-37.944 30.806,-53.347 68.75,-34.375Z" style="fill:#ebebeb;"/></svg>
