<?xml version="1.0" encoding="UTF-8" standalone="no"?>
<!-- Created with Inkscape (http://www.inkscape.org/) -->

<svg
   width="114.008mm"
   height="114.009mm"
   viewBox="0 0 114.008 114.009"
   version="1.1"
   id="svg5"
   inkscape:version="1.3 (0e150ed, 2023-07-21)"
   sodipodi:docname="ialight-logo-2.svg"
   xmlns:inkscape="http://www.inkscape.org/namespaces/inkscape"
   xmlns:sodipodi="http://sodipodi.sourceforge.net/DTD/sodipodi-0.dtd"
   xmlns="http://www.w3.org/2000/svg"
   xmlns:svg="http://www.w3.org/2000/svg">
  <sodipodi:namedview
     id="namedview7"
     pagecolor="#ffffff"
     bordercolor="#666666"
     borderopacity="1.0"
     inkscape:pageshadow="2"
     inkscape:pageopacity="0.0"
     inkscape:pagecheckerboard="0"
     inkscape:document-units="mm"
     showgrid="false"
     inkscape:zoom="1.8612201"
     inkscape:cx="383.61933"
     inkscape:cy="273.20788"
     inkscape:window-width="1920"
     inkscape:window-height="986"
     inkscape:window-x="0"
     inkscape:window-y="22"
     inkscape:window-maximized="0"
     inkscape:current-layer="layer1"
     inkscape:showpageshadow="2"
     inkscape:deskcolor="#d1d1d1">
    <inkscape:grid
       type="xygrid"
       id="grid9"
       originx="-171.21975"
       originy="-58.270686"
       spacingy="1"
       spacingx="1"
       units="mm"
       visible="false" />
  </sodipodi:namedview>
  <defs
     id="defs2" />
  <g
     inkscape:label="Layer 1"
     inkscape:groupmode="layer"
     id="layer1"
     transform="translate(-45.301892,-15.417452)">
    <path
       d="m 100.57061,91.272982 c -0.01,-0.196129 -0.0127,-0.397432 -0.0388,-0.580327 -0.0415,-0.291042 -0.10365,-0.56516 -0.18655,-0.822688 -0.0829,-0.257528 -0.18674,-0.498423 -0.3111,-0.722437 -0.124351,-0.224014 -0.269305,-0.431167 -0.435111,-0.621667 -0.165806,-0.194028 -0.346143,-0.363492 -0.541053,-0.509013 -0.19491,-0.145521 -0.404371,-0.266788 -0.628385,-0.363802 -0.224014,-0.09701 -0.462601,-0.170085 -0.715719,-0.218592 -0.253118,-0.04851 -0.520829,-0.07286 -0.803051,-0.07286 -0.282223,0 -0.549934,0.02436 -0.803052,0.07286 -0.253118,0.04851 -0.491705,0.121578 -0.715719,0.218592 -0.224014,0.09701 -0.433475,0.218281 -0.628385,0.363802 -0.19491,0.145521 -0.375247,0.314985 -0.541052,0.509013 -0.165806,0.1905 -0.310762,0.397653 -0.435116,0.621667 -0.124354,0.224014 -0.228189,0.464909 -0.311092,0.722437 -0.0829,0.257528 -0.145101,0.531646 -0.186552,0.822688 -0.02577,0.180949 -0.02901,0.380222 -0.03876,0.574126 1.518782,0.0015 1.516727,0.003 3.290238,0.0047 2.197876,0.0021 2.219022,-2.8e-5 4.029219,0.0016 z"
       style="display:inline;fill:#bfd8c3;stroke-width:1.2598"
       id="path21" />
    <path
       d="m 112.32699,91.278149 v -0.762744 c 0,-0.359833 -0.025,-0.687585 -0.0744,-0.983919 -0.0247,-0.148167 -0.0555,-0.288354 -0.0925,-0.420646 -0.037,-0.132292 -0.0803,-0.256687 -0.12971,-0.373104 -0.0459,-0.116417 -0.0987,-0.225688 -0.15865,-0.327112 -0.06,-0.101424 -0.12693,-0.195206 -0.20102,-0.281636 -0.0741,-0.08643 -0.1552,-0.165241 -0.24339,-0.236678 -0.0882,-0.07144 -0.18347,-0.135275 -0.28577,-0.19172 -0.10231,-0.05644 -0.2124,-0.105978 -0.3297,-0.148311 -0.1173,-0.04233 -0.24185,-0.07771 -0.37414,-0.105937 -0.26458,-0.05644 -0.55911,-0.08475 -0.88366,-0.08475 -0.17992,0 -0.35467,0.01005 -0.524,0.02945 -0.16934,0.0194 -0.33321,0.04853 -0.49196,0.08733 -0.15875,0.03881 -0.31227,0.087 -0.46044,0.145211 -0.14817,0.05821 -0.29081,0.125994 -0.4284,0.203605 -0.13405,0.07408 -0.26076,0.15669 -0.37982,0.24753 -0.11906,0.09084 -0.23079,0.190059 -0.33486,0.297657 -0.10407,0.107597 -0.20083,0.223428 -0.28991,0.347782 -0.0891,0.124354 -0.17034,0.257314 -0.24443,0.398425 -0.0741,0.137584 -0.13874,0.281568 -0.1943,0.431499 -0.0556,0.14993 -0.10197,0.30591 -0.13901,0.468188 -0.037,0.162278 -0.0652,0.33077 -0.0837,0.505396 -0.0185,0.174625 -0.0274,0.355113 -0.0274,0.542085 v 0.209807 c 2.14181,0.0012 4.9359,0.0031 6.37118,0.0026 z"
       style="display:inline;fill:#bfd8c3;stroke-width:1.2598"
       id="path17" />
    <path
       id="path14"
       style="display:inline;fill:#bfd8c3;stroke-width:1.2598"
       d="m 129.2872,51.072335 -67.548333,0.01964 0.0047,0.174666 c 0.0025,0.09624 0.02009,0.297804 0.03927,0.447518 0.01587,0.123866 0.02896,0.195778 0.05943,0.257349 0.03047,0.06157 0.07846,0.112536 0.164331,0.194303 0.07097,0.06756 0.124158,0.130295 0.168982,0.203088 0.04482,0.07279 0.08125,0.155641 0.118339,0.26355 0.05772,0.167951 0.08781,0.304908 0.09147,0.4408 0.0037,0.135893 -0.01943,0.270711 -0.06821,0.435116 -0.03641,0.122728 -0.05855,0.228735 -0.06305,0.330212 -0.0045,0.101478 0.0088,0.198415 0.04444,0.302824 0.03568,0.104409 0.09364,0.216261 0.177767,0.347783 0.08413,0.13152 0.194538,0.282789 0.33538,0.465604 0.252321,0.327533 0.38369,0.501116 0.46147,0.637687 0.07778,0.136572 0.102015,0.236061 0.13901,0.416512 0.02168,0.105736 0.03622,0.191047 0.04031,0.270785 0.0041,0.07974 -0.0023,0.154199 -0.02325,0.237711 -0.04198,0.167027 -0.141468,0.370979 -0.328662,0.731739 -0.149311,0.287753 -0.228896,0.447549 -0.28267,0.633553 -0.05377,0.186003 -0.08203,0.398591 -0.129708,0.7922 -0.01594,0.131561 -0.04056,0.259984 -0.07441,0.388606 -0.03385,0.128622 -0.07687,0.25743 -0.130224,0.389124 -0.08669,0.213971 -0.287589,0.730136 -0.446485,1.147217 -0.140463,0.368691 -0.212686,0.561214 -0.250114,0.711067 -0.03743,0.149854 -0.04009,0.257257 -0.04134,0.455786 -9.05e-4,0.14568 0.002,0.261672 0.02015,0.370004 0.01816,0.108332 0.05134,0.209032 0.111104,0.322977 0.05976,0.113947 0.146373,0.241071 0.270268,0.403593 0.123895,0.162523 0.285532,0.360371 0.496094,0.614433 0.09517,0.114839 0.202699,0.265184 0.314709,0.436149 0.112011,0.170965 0.228088,0.362244 0.339514,0.558622 0.222853,0.39276 0.427176,0.80607 0.54312,1.116211 0.07673,0.205245 0.119925,0.329979 0.14366,0.448035 0.02373,0.118057 0.02819,0.229134 0.02842,0.40721 2.32e-4,0.140679 0.0052,0.261574 0.01912,0.375171 0.01387,0.113598 0.03657,0.219863 0.07183,0.330729 0.03526,0.110868 0.08288,0.226663 0.147278,0.359152 0.06439,0.132488 0.145741,0.281976 0.247013,0.460437 0.167944,0.295944 0.257058,0.456636 0.312126,0.594279 0.05507,0.137641 0.07563,0.251807 0.107487,0.455269 0.03578,0.228557 0.06848,0.41111 0.108003,0.567924 0.03952,0.156814 0.08632,0.287969 0.150379,0.413928 0.06406,0.12596 0.14538,0.246929 0.254765,0.382923 0.109383,0.135992 0.24669,0.286957 0.422196,0.473872 0.286256,0.304897 0.649392,0.69239 0.807186,0.86093 0.137694,0.147065 0.252318,0.279329 0.348816,0.406693 0.0965,0.127365 0.174773,0.249702 0.240812,0.378272 0.06604,0.12857 0.119562,0.263247 0.165881,0.413928 0.04632,0.150681 0.08565,0.317382 0.12299,0.51108 0.05085,0.263773 0.155141,0.709608 0.231511,0.990637 0.07118,0.261977 0.11037,0.437617 0.128157,0.65009 0.01779,0.212472 0.01385,0.462081 -10e-4,0.872298 -0.0069,0.188371 -0.0085,0.291153 0.0217,0.435115 0.03017,0.143964 0.09215,0.328917 0.21239,0.681613 0.09324,0.273489 0.170042,0.49008 0.242879,0.671276 0.07284,0.181198 0.141729,0.327179 0.219108,0.45837 0.07738,0.131192 0.163403,0.247565 0.270268,0.371037 0.106865,0.123472 0.234549,0.253822 0.395841,0.411861 0.102922,0.100851 0.194431,0.200136 0.275436,0.299207 0.08101,0.09907 0.151595,0.198072 0.21239,0.298173 0.06079,0.100101 0.111705,0.201465 0.153996,0.305408 0.04229,0.103941 0.07579,0.210317 0.101285,0.32091 0.03761,0.163172 0.135922,0.43239 0.218592,0.598413 0.07779,0.156226 0.139104,0.290988 0.186552,0.420646 0.04745,0.12966 0.08114,0.254215 0.103869,0.391191 0.02272,0.136976 0.03462,0.286397 0.03824,0.464571 0.0036,0.178174 -9.92e-4,0.385467 -0.01085,0.638721 -0.0071,0.181023 -0.0078,0.287648 0.01499,0.414962 0.02275,0.127313 0.06924,0.274952 0.155546,0.537435 0.08027,0.244116 0.128381,0.408907 0.163814,0.588077 0.03543,0.179172 0.05785,0.372882 0.08578,0.675928 0.02699,0.292818 0.04921,0.48515 0.08061,0.649573 0.03141,0.164423 0.07203,0.300969 0.135393,0.481107 0.05511,0.156688 0.09693,0.281648 0.126607,0.393258 0.02967,0.11161 0.04717,0.209886 0.05374,0.313159 0.0066,0.103274 0.0023,0.211453 -0.01188,0.343132 -0.01419,0.131679 -0.03818,0.286865 -0.0708,0.483691 -0.07588,0.457946 -0.132712,0.803129 -0.171049,1.071253 -0.03834,0.268123 -0.05792,0.458964 -0.05943,0.608231 -0.0015,0.149267 0.01501,0.25726 0.04961,0.358635 0.0346,0.101375 0.08711,0.196462 0.157096,0.32091 0.107214,0.190634 0.282687,0.41939 0.427364,0.557072 0.149035,0.141824 0.354435,0.291299 0.561206,0.415996 0.206771,0.124695 0.415164,0.2246 0.571025,0.26665 0.05218,0.01406 0.228125,0.02515 0.796334,0.03411 0.568207,0.009 1.52882,0.01595 3.149161,0.0217 0.967186,0.0034 4.411017,0.0054 5.905583,0.0083 v -9.223727 h 0.889351 v 9.225277 c 1.324831,0.0023 3.160674,0.005 4.939751,0.0072 v -4.554244 h 0.889351 v 4.555277 c 1.117759,0.0013 1.652086,0.0028 2.955892,0.0041 0.0057,-0.129269 0.0061,-0.262154 0.01809,-0.387056 0.02293,-0.238126 0.05749,-0.468148 0.103353,-0.690397 0.04586,-0.222251 0.10329,-0.436997 0.172082,-0.643372 0.06879,-0.206375 0.14909,-0.404813 0.240812,-0.595312 0.09525,-0.190501 0.200057,-0.37017 0.31471,-0.539502 0.114653,-0.169334 0.239048,-0.32829 0.373104,-0.476457 0.134054,-0.148167 0.277523,-0.285378 0.430981,-0.412378 0.153458,-0.127 0.317031,-0.243499 0.489893,-0.349333 0.17286,-0.105833 0.35335,-0.198644 0.542085,-0.278019 0.188737,-0.07937 0.385534,-0.145521 0.590145,-0.198437 0.204611,-0.05292 0.417202,-0.0924 0.637687,-0.118856 0.220487,-0.02646 0.448869,-0.03979 0.68523,-0.03979 0.243417,0 0.478208,0.01646 0.704866,0.04909 0.22666,0.03263 0.445355,0.0815 0.655258,0.146761 0.209901,0.06526 0.411468,0.146533 0.604614,0.244429 0.193146,0.0979 0.377582,0.212087 0.553971,0.342615 0.176389,0.127 0.336986,0.266368 0.481625,0.418062 0.144641,0.151695 0.273651,0.316088 0.386541,0.492477 0.0985,0.153835 0.17943,0.320891 0.25373,0.49351 v -2.017448 h 0.88884 v 4.56768 c 1.54772,0.0013 2.33014,7.74e-4 3.60495,0.0015 v -9.247498 h 0.88935 v 6.54482 c 0.0952,-0.191253 0.20227,-0.369568 0.32246,-0.5333 0.12171,-0.165806 0.25631,-0.317686 0.40359,-0.45527 0.14729,-0.137583 0.30721,-0.260642 0.48007,-0.370003 0.17287,-0.112889 0.35238,-0.211956 0.53847,-0.296623 0.18609,-0.08467 0.37894,-0.154912 0.57826,-0.211356 0.19932,-0.05645 0.4055,-0.0989 0.61805,-0.127124 0.21255,-0.02822 0.43155,-0.04237 0.65733,-0.04237 0.20461,0 0.40059,0.0094 0.58756,0.0279 0.18697,0.01852 0.365,0.04616 0.53433,0.0832 0.16933,0.03704 0.32993,0.08345 0.48163,0.13901 0.15169,0.05556 0.29434,0.12022 0.42839,0.194303 0.13759,0.07056 0.2666,0.150186 0.38654,0.239262 0.11995,0.08908 0.23101,0.187475 0.33332,0.295073 0.1023,0.107597 0.19542,0.224765 0.28008,0.350883 0.0847,0.126117 0.16087,0.261537 0.2279,0.406176 0.067,0.144639 0.12542,0.29816 0.1757,0.460437 0.0503,0.162278 0.0921,0.333232 0.12557,0.513147 0.0335,0.179917 0.0587,0.368302 0.0755,0.565857 0.0168,0.197556 0.0253,0.404406 0.0253,0.619601 v 0.847493 c 0.74956,-4.39e-4 2.96302,0.0027 3.53932,0.0015 0.19565,-3.61e-4 0.21444,-0.0016 0.39222,-0.0021 v -3.81062 h -2.0531 v -0.76171 h 2.0531 v -3.196188 h 0.88884 v 3.196188 h 3.36568 v 0.76171 h -3.36568 v 3.80597 c 0.72644,-0.0032 1.61475,-0.0054 2.01796,-0.01085 0.65919,-0.0089 0.98308,-0.0207 1.28726,-0.03669 0.71319,-0.03746 1.35884,-0.05912 1.43454,-0.04806 0.0757,0.01109 0.35462,0.09403 0.6196,0.184485 l 0.48162,0.164331 0.55036,0.471289 c 0.30257,0.259067 0.69722,0.631825 0.87746,0.82889 0.18024,0.197064 0.48882,0.49044 0.68575,0.65164 h -0.002 c 0.16609,0.135953 0.25898,0.209283 0.3328,0.248564 0.0738,0.03928 0.12867,0.04444 0.21807,0.04444 0.12207,0 0.24237,-0.02134 0.35502,-0.06253 0.11264,-0.04119 0.21737,-0.102196 0.30903,-0.180351 0.0611,-0.05208 0.0972,-0.08929 0.11782,-0.133325 0.0206,-0.04403 0.0258,-0.09461 0.0258,-0.173116 0,-0.101424 -0.032,-0.303887 -0.0708,-0.449585 -0.0456,-0.171348 -0.0616,-0.34955 -0.0496,-0.513664 0.006,-0.08206 0.0189,-0.160703 0.0388,-0.233061 0.0198,-0.07236 0.0463,-0.138456 0.0796,-0.195853 0.0542,-0.09352 0.12962,-0.18848 0.22014,-0.28112 0.0905,-0.09264 0.19615,-0.183116 0.31161,-0.26665 0.11545,-0.08354 0.24046,-0.160141 0.36949,-0.226343 0.12904,-0.0662 0.26201,-0.121622 0.39325,-0.162264 0.1278,-0.03958 0.41892,-0.100624 0.64648,-0.135392 0.24646,-0.03767 0.41886,-0.077 0.56895,-0.139527 0.15009,-0.06252 0.27764,-0.148086 0.43357,-0.278019 0.16665,-0.138867 0.28689,-0.26475 0.37827,-0.403593 0.0914,-0.138843 0.15399,-0.290846 0.20464,-0.482141 0.0481,-0.181817 0.1271,-0.482382 0.1757,-0.668176 0.0317,-0.121053 0.0718,-0.239029 0.12247,-0.357085 0.0506,-0.118055 0.11182,-0.236299 0.18552,-0.358117 0.14738,-0.243636 0.34516,-0.501747 0.60926,-0.800985 0.18963,-0.214847 0.34195,-0.397772 0.46406,-0.562239 0.1221,-0.164469 0.21394,-0.31061 0.28164,-0.452169 0.0677,-0.141559 0.11155,-0.278145 0.13797,-0.424264 0.0264,-0.146119 0.0353,-0.301409 0.0336,-0.479557 -0.002,-0.213103 -0.0154,-0.403081 -0.0439,-0.577226 -0.0285,-0.174145 -0.0722,-0.332395 -0.13385,-0.483691 -0.0616,-0.151297 -0.14162,-0.29521 -0.24287,-0.439767 -0.10125,-0.144557 -0.22361,-0.289973 -0.37104,-0.4439 -0.18495,-0.193073 -0.33369,-0.356935 -0.45114,-0.501778 -0.11745,-0.144845 -0.204,-0.270402 -0.26458,-0.387574 -0.0606,-0.117171 -0.0952,-0.225844 -0.10955,-0.335896 -0.0143,-0.110054 -0.008,-0.221709 0.0129,-0.345199 0.028,-0.162662 0.10424,-0.449213 0.18758,-0.72502 0.0833,-0.275809 0.17384,-0.540805 0.23099,-0.659908 0.0252,-0.05245 0.0782,-0.1212 0.14832,-0.196371 0.0702,-0.07517 0.15721,-0.156728 0.25063,-0.236161 0.18686,-0.158867 0.39857,-0.307919 0.54828,-0.373104 0.10816,-0.04709 0.20192,-0.07643 0.4036,-0.10697 0.20168,-0.03055 0.51126,-0.06241 1.05265,-0.113688 0.66755,-0.06324 1.37313,-0.126293 1.56734,-0.140043 0.21891,-0.01555 0.46614,-0.05097 0.70383,-0.0987 0.23769,-0.04773 0.46571,-0.107884 0.64648,-0.1726 0.15108,-0.05411 0.76319,-0.338483 1.36012,-0.632003 0.51679,-0.254096 0.79285,-0.391575 0.98702,-0.507462 0.19416,-0.115887 0.30644,-0.209996 0.49558,-0.377238 0.21849,-0.193165 0.44966,-0.438758 0.51366,-0.545703 0.064,-0.106917 0.17987,-0.412766 0.25787,-0.679545 0.078,-0.266785 0.1988,-0.584202 0.2682,-0.705384 0.0778,-0.135748 0.21712,-0.314845 0.38395,-0.498677 0.16682,-0.183833 0.36109,-0.372514 0.54726,-0.527616 0.12854,-0.10709 0.24239,-0.211064 0.34313,-0.313676 0.10075,-0.102614 0.18831,-0.20387 0.26303,-0.304375 0.0747,-0.100504 0.13662,-0.20051 0.18707,-0.301273 0.0504,-0.100764 0.0894,-0.202018 0.1173,-0.305408 0.0438,-0.162058 0.0822,-0.474917 0.10594,-0.804602 0.0237,-0.329685 0.0331,-0.676426 0.0176,-0.906405 -0.0166,-0.244692 -0.0321,-0.438483 -0.0527,-0.598413 -0.0206,-0.159929 -0.046,-0.285979 -0.0816,-0.394808 -0.0356,-0.108829 -0.0814,-0.200579 -0.14314,-0.291971 -0.0617,-0.09139 -0.13945,-0.182283 -0.23823,-0.289905 -0.13081,-0.142519 -0.24359,-0.246867 -0.40101,-0.355534 -0.15742,-0.108667 -0.3592,-0.221718 -0.66766,-0.382406 -0.24341,-0.126803 -0.44295,-0.237733 -0.61236,-0.346232 -0.16942,-0.108499 -0.30896,-0.214486 -0.43357,-0.332279 -0.12461,-0.117793 -0.23412,-0.247357 -0.34313,-0.402043 -0.10901,-0.154686 -0.21743,-0.334278 -0.34003,-0.553454 -0.099,-0.176914 -0.1858,-0.323515 -0.27389,-0.453203 -0.0881,-0.129688 -0.17729,-0.242589 -0.28112,-0.353467 -0.10382,-0.110876 -0.22227,-0.219549 -0.36845,-0.340031 -0.14618,-0.12048 -0.32023,-0.252843 -0.53537,-0.411344 -0.33855,-0.249443 -0.72252,-0.561163 -0.85317,-0.692464 -0.14101,-0.141704 -0.31048,-0.342688 -0.46096,-0.540536 -0.15048,-0.197846 -0.2822,-0.392329 -0.34675,-0.520898 -0.0769,-0.153142 -0.17022,-0.308315 -0.27543,-0.459404 -0.10521,-0.151087 -0.22225,-0.2984 -0.3452,-0.435632 -0.12295,-0.137231 -0.25177,-0.264116 -0.38189,-0.375688 -0.13012,-0.11157 -0.26138,-0.207529 -0.38809,-0.281636 -0.13399,-0.07836 -0.50877,-0.219027 -0.8847,-0.331763 -0.35869,-0.107549 -0.95107,-0.32334 -1.31672,-0.480074 -0.28767,-0.123291 -0.46419,-0.203926 -0.60254,-0.282153 -0.13835,-0.07823 -0.23867,-0.154374 -0.37311,-0.269751 -0.13379,-0.114827 -0.23645,-0.205526 -0.32298,-0.299723 -0.0865,-0.0942 -0.15666,-0.19166 -0.22479,-0.319361 -0.0681,-0.1277 -0.1343,-0.285929 -0.2129,-0.501261 -0.0786,-0.215333 -0.16989,-0.487815 -0.28784,-0.84491 -0.23093,-0.699061 -0.49893,-1.486886 -0.59583,-1.750281 -0.0712,-0.193626 -0.12654,-0.358989 -0.16692,-0.506945 -0.0404,-0.147958 -0.0656,-0.2784 -0.077,-0.400493 -0.0114,-0.122092 -0.009,-0.235884 0.007,-0.351916 0.0158,-0.116032 0.0447,-0.234027 0.0858,-0.363802 0.038,-0.120036 0.12821,-0.309441 0.23306,-0.499711 0.10485,-0.190272 0.22409,-0.381781 0.32039,-0.505396 0.0711,-0.09134 0.19072,-0.281236 0.26562,-0.422196 0.0568,-0.106902 0.0916,-0.185256 0.11369,-0.273369 0.0221,-0.08811 0.0314,-0.185933 0.0377,-0.331246 l 0.0155,-0.348299 -0.52503,-0.648539 c -0.28865,-0.356737 -0.59951,-0.771678 -0.69091,-0.921391 -0.0914,-0.149721 -0.19421,-0.300983 -0.22841,-0.336413 -0.0341,-0.03543 -0.0923,-0.166039 -0.12919,-0.290422 -0.0368,-0.124383 -0.0954,-0.274908 -0.13023,-0.334346 z M 88.256112,82.514343 h 1.354439 v 1.333769 h -1.354439 z" />
    <ellipse
       style="display:inline;fill:none;stroke:#bfd8c3;stroke-width:1.6;stroke-miterlimit:4;stroke-dasharray:none;stroke-opacity:1"
       id="path175"
       cx="102.30589"
       cy="72.421951"
       rx="56.203999"
       ry="56.204498" />
    <ellipse
       style="display:inline;fill:none;stroke:#bfd8c3;stroke-width:2.5;stroke-miterlimit:4;stroke-dasharray:none;stroke-opacity:1"
       id="ellipse8692"
       cx="102.30589"
       cy="72.421951"
       rx="53.038013"
       ry="53.038486" />
    <g
       aria-label="iowa"
       id="text12612"
       style="font-size:21.1667px;line-height:1.25;fill:#bfd8c3;stroke-width:0.264583">
      <path
         d="m 81.97048,37.789609 v -1.333503 h 1.354669 v 1.333503 z m 0.232834,13.102187 V 40.647113 h 0.889001 v 10.244683 z"
         style="font-weight:200;font-family:'Nunito Sans';-inkscape-font-specification:'Nunito Sans Ultra-Light'"
         id="path36159" />
      <path
         d="m 90.604179,51.06113 q -1.397002,0 -2.434171,-0.656168 -1.016001,-0.656168 -1.587502,-1.841503 -0.550334,-1.185335 -0.550334,-2.794004 0,-1.60867 0.550334,-2.794005 0.571501,-1.185335 1.587502,-1.841503 1.037169,-0.656167 2.434171,-0.656167 1.397002,0 2.413004,0.656167 1.037168,0.656168 1.587502,1.841503 0.571501,1.185335 0.571501,2.794005 0,1.608669 -0.571501,2.794004 -0.550334,1.185335 -1.587502,1.841503 -1.016002,0.656168 -2.413004,0.656168 z m 0,-0.825502 q 1.693336,0 2.667004,-1.164168 0.994835,-1.185335 0.994835,-3.302005 0,-2.11667 -0.994835,-3.280839 -0.973668,-1.185335 -2.667004,-1.185335 -1.672169,0 -2.667004,1.185335 -0.994835,1.164169 -0.994835,3.280839 0,2.11667 0.994835,3.302005 0.994835,1.164168 2.667004,1.164168 z"
         style="font-weight:200;font-family:'Nunito Sans';-inkscape-font-specification:'Nunito Sans Ultra-Light'"
         id="path36161" />
      <path
         d="M 100.60015,50.891796 97.001814,40.647113 h 0.973668 l 3.407838,9.969516 h -0.55033 l 3.57717,-9.969516 h 1.10067 l 3.4925,9.969516 H 108.453 l 3.4925,-9.969516 h 0.95251 l -3.64068,10.244683 h -1.03717 L 104.64299,40.79528 h 0.65617 l -3.64067,10.096516 z"
         style="font-weight:200;font-family:'Nunito Sans';-inkscape-font-specification:'Nunito Sans Ultra-Light'"
         id="path36163" />
      <path
         d="m 118.40796,51.06113 q -0.99483,0 -1.79917,-0.402168 -0.80433,-0.402167 -1.27,-1.079501 -0.46567,-0.698501 -0.46567,-1.545169 0,-1.143002 0.55034,-1.778003 0.5715,-0.656168 1.92617,-0.910168 1.37583,-0.275167 3.76767,-0.275167 h 0.86784 v 0.783167 h -0.82551 q -1.56633,0 -2.6035,0.105834 -1.03717,0.08467 -1.62984,0.338667 -0.59266,0.232834 -0.84666,0.635001 -0.23284,0.402167 -0.23284,1.016002 0,1.016001 0.6985,1.672169 0.71967,0.635001 1.92617,0.635001 0.97367,0 1.69334,-0.465667 0.74083,-0.486834 1.16417,-1.291169 0.42333,-0.825501 0.42333,-1.86267 v -2.413004 q 0,-1.524002 -0.59267,-2.222503 -0.59266,-0.698501 -1.905,-0.698501 -0.9525,0 -1.79917,0.275167 -0.8255,0.275167 -1.73567,0.889001 l -0.42333,-0.762001 q 0.55033,-0.381 1.18533,-0.656168 0.65617,-0.275167 1.35467,-0.423334 0.6985,-0.148166 1.37584,-0.148166 1.16417,0 1.92617,0.402167 0.762,0.402167 1.12183,1.227668 0.381,0.825502 0.381,2.11667 v 6.667511 h -0.86783 v -2.561171 h 0.23283 q -0.21166,0.846668 -0.71967,1.460503 -0.508,0.613834 -1.24883,0.952501 -0.71967,0.317501 -1.62984,0.317501 z"
         style="font-weight:200;font-family:'Nunito Sans';-inkscape-font-specification:'Nunito Sans Ultra-Light'"
         id="path36165" />
    </g>
    <path
       d="m 100.59386,94.490873 c 0.005,-0.01109 0.0115,-0.02036 0.016,-0.03152 0.0811,-0.201966 0.14646,-0.416044 0.19585,-0.641822 h -0.21187 z"
       style="font-weight:200;font-family:'Nunito Sans';-inkscape-font-specification:'Nunito Sans Ultra-Light'"
       id="path23" />
    <path
       d="m 100.57267,88.723267 v 0.712618 h 0.23306 c -0.0494,-0.225778 -0.11471,-0.439188 -0.19585,-0.640271 -0.0104,-0.02571 -0.0263,-0.04704 -0.0372,-0.07235 z"
       style="font-weight:200;font-family:'Nunito Sans';-inkscape-font-specification:'Nunito Sans Ultra-Light'"
       id="path22" />
    <path
       d="m 105.95581,88.572371 c -0.001,0.0024 -0.003,0.0043 -0.004,0.0067 -0.0961,0.194028 -0.17956,0.402002 -0.25011,0.624252 h 0.25425 z"
       style="font-weight:200;font-family:'Nunito Sans';-inkscape-font-specification:'Nunito Sans Ultra-Light'"
       id="path19" />
    <g
       id="g26"
       style="fill:#bfd8c3;fill-opacity:1">
      <path
         d="m 83.548905,91.252828 c -0.238522,-4.19e-4 -0.664276,-0.0011 -0.889351,-0.0015 v 2.608626 c 0,0.257528 0.01497,0.500882 0.04496,0.730188 0.02999,0.229306 0.0749,0.444355 0.134875,0.645439 0.05997,0.201083 0.135351,0.388345 0.225309,0.561206 0.08996,0.17286 0.194765,0.331818 0.31471,0.476456 0.123472,0.141112 0.259043,0.26417 0.40721,0.370004 0.148167,0.105833 0.308763,0.194027 0.481624,0.264583 0.172862,0.07056 0.357966,0.123885 0.555522,0.159163 0.197556,0.03528 0.407686,0.05271 0.629936,0.05271 0.155222,0 0.317459,-0.01417 0.486792,-0.04237 0.169333,-0.01413 0.345721,-0.04242 0.529166,-0.08475 l 0.06356,-0.825272 c -0.155222,0.04235 -0.317458,0.07722 -0.486792,0.10542 -0.155222,0.01413 -0.324534,0.02119 -0.507979,0.02119 -0.218722,0 -0.419619,-0.02287 -0.603064,-0.06873 -0.183445,-0.04586 -0.349477,-0.114465 -0.497644,-0.206189 -0.148166,-0.09878 -0.278818,-0.220714 -0.391707,-0.365352 -0.112889,-0.144638 -0.20816,-0.311795 -0.285771,-0.502295 -0.07056,-0.197556 -0.123369,-0.416401 -0.158647,-0.656291 -0.03528,-0.239889 -0.05271,-0.501191 -0.05271,-0.783414 z"
         style="font-weight:200;font-family:'Nunito Sans';-inkscape-font-specification:'Nunito Sans Ultra-Light';fill:#bfd8c3;fill-opacity:1"
         id="path25" />
      <path
         d="m 89.378007,91.261096 c -0.336305,-3.99e-4 -0.569047,-6.35e-4 -0.889351,-10e-4 v 5.690092 h 0.889351 z"
         style="font-weight:200;font-family:'Nunito Sans';-inkscape-font-specification:'Nunito Sans Ultra-Light';fill:#bfd8c3;fill-opacity:1"
         id="path24" />
      <path
         d="m 101.46151,91.273499 c -0.3825,-3.22e-4 -0.49065,-1.68e-4 -0.8909,-5.17e-4 0.006,0.115973 0.0233,0.22253 0.0233,0.343131 0,0.324555 -0.0206,0.633085 -0.062,0.925008 -0.0415,0.291923 -0.10365,0.567532 -0.18655,0.826823 -0.0829,0.259292 -0.18674,0.501978 -0.3111,0.728638 -0.124351,0.22666 -0.269305,0.436941 -0.435111,0.630969 -0.165806,0.194028 -0.346143,0.364009 -0.541053,0.50953 -0.19491,0.145521 -0.404371,0.266788 -0.628385,0.363802 -0.224014,0.09701 -0.462601,0.169567 -0.715719,0.218075 -0.253118,0.04851 -0.520829,0.07286 -0.803051,0.07286 -0.282223,0 -0.549934,-0.02436 -0.803052,-0.07286 -0.253118,-0.04851 -0.491705,-0.121061 -0.715719,-0.218075 -0.224014,-0.09701 -0.433475,-0.218281 -0.628385,-0.363802 -0.19491,-0.145521 -0.375247,-0.315502 -0.541052,-0.50953 -0.165806,-0.194028 -0.310762,-0.404309 -0.435116,-0.630969 -0.124354,-0.22666 -0.228189,-0.469346 -0.311092,-0.728638 -0.0829,-0.259291 -0.145101,-0.5349 -0.186552,-0.826823 -0.04145,-0.291923 -0.06201,-0.600453 -0.06201,-0.925008 0,-0.12277 0.01732,-0.231357 0.02325,-0.349332 -0.423408,-4.32e-4 -0.512666,-0.0011 -0.917257,-0.0016 -0.0052,0.117183 -0.01602,0.230112 -0.01602,0.350883 0,0.250472 0.01118,0.493828 0.03411,0.730188 0.02293,0.236361 0.05749,0.466081 0.103353,0.68833 0.04586,0.22225 0.10329,0.4373 0.172082,0.645439 0.06879,0.208139 0.14909,0.409036 0.240812,0.603064 0.09525,0.1905 0.200057,0.370837 0.31471,0.541052 0.114653,0.170215 0.239048,0.33066 0.373104,0.480591 0.134055,0.149931 0.277523,0.28945 0.430981,0.419096 0.153458,0.129646 0.317031,0.249273 0.489893,0.358634 0.172861,0.105834 0.353349,0.198128 0.542085,0.277503 0.188737,0.07937 0.385534,0.145521 0.590145,0.198437 0.204611,0.05292 0.417201,0.09292 0.637687,0.119373 0.220487,0.02646 0.448869,0.03979 0.68523,0.03979 0.243417,0 0.478207,-0.01579 0.704866,-0.04754 0.22666,-0.03175 0.445355,-0.07964 0.655258,-0.143143 0.209902,-0.0635 0.411468,-0.142979 0.604614,-0.238229 0.193146,-0.09525 0.377582,-0.206313 0.553971,-0.333313 0.176389,-0.130528 0.336986,-0.273023 0.481625,-0.427364 0.144638,-0.15434 0.273648,-0.320524 0.386538,-0.498677 0.10665,-0.16831 0.19661,-0.348906 0.27492,-0.538469 v -0.673344 h 0.21187 c -0.0494,0.225778 -0.11471,0.439856 -0.19585,0.641822 -0.004,0.01116 -0.0114,0.02044 -0.016,0.03152 v 2.141988 c 0,0.278695 -0.0173,0.54097 -0.0517,0.787032 -0.0344,0.246063 -0.0857,0.475933 -0.15451,0.689364 -0.0688,0.213431 -0.15519,0.41038 -0.25838,0.591178 -0.10319,0.180799 -0.223119,0.345344 -0.360703,0.49351 -0.137583,0.151693 -0.291103,0.284656 -0.460437,0.398426 -0.169333,0.113769 -0.354955,0.208373 -0.556038,0.28422 -0.201084,0.07585 -0.417773,0.132608 -0.650606,0.170528 -0.232834,0.0379 -0.481625,0.0568 -0.746208,0.0568 -0.261056,0 -0.511486,-0.0104 -0.751375,-0.0315 -0.23989,-0.0212 -0.469091,-0.0528 -0.687814,-0.09508 -0.211667,-0.04233 -0.41964,-0.100583 -0.624251,-0.174666 -0.204611,-0.07408 -0.406025,-0.164435 -0.603581,-0.270268 -0.197556,-0.09878 -0.402249,-0.213122 -0.613916,-0.343648 -0.211667,-0.130527 -0.429996,-0.276974 -0.655774,-0.43925 L 92.9949,99.468795 c 0.148167,0.119945 0.300716,0.232495 0.45682,0.337447 0.156104,0.104952 0.316032,0.202528 0.480074,0.292488 0.164042,0.09 0.331866,0.17256 0.503845,0.24753 0.17198,0.075 0.348217,0.14208 0.528134,0.20205 0.183444,0.0635 0.370189,0.11929 0.560689,0.16692 0.1905,0.0476 0.384321,0.0871 0.581876,0.11886 0.197556,0.0318 0.39897,0.056 0.603581,0.0718 0.204611,0.0159 0.412585,0.0238 0.624252,0.0238 0.229305,0 0.448971,-0.0109 0.658874,-0.032 0.209903,-0.0212 0.40998,-0.0528 0.60048,-0.0951 0.1905,-0.0423 0.371505,-0.0951 0.542603,-0.15864 0.171097,-0.0635 0.332513,-0.13755 0.484208,-0.22221 0.151695,-0.0811 0.29419,-0.17313 0.427364,-0.27544 0.13317,-0.1023 0.2569,-0.215005 0.37155,-0.338478 0.11466,-0.123472 0.22013,-0.257404 0.31626,-0.402042 0.0961,-0.144639 0.18284,-0.2998 0.26045,-0.465605 0.0776,-0.165806 0.1454,-0.341374 0.20361,-0.526583 0.0582,-0.185209 0.10692,-0.380366 0.14573,-0.584977 0.0388,-0.204611 0.0679,-0.418841 0.0873,-0.642855 0.0194,-0.224014 0.0289,-0.457833 0.0289,-0.701249 z"
         style="font-weight:200;font-family:'Nunito Sans';-inkscape-font-specification:'Nunito Sans Ultra-Light';fill:#bfd8c3;fill-opacity:1"
         id="path20" />
      <path
         d="m 105.95581,91.275566 c -0.29898,-1.73e-4 -0.57486,-3.13e-4 -0.88935,-5.17e-4 v 5.675106 h 0.88935 z"
         style="font-weight:200;font-family:'Nunito Sans';-inkscape-font-specification:'Nunito Sans Ultra-Light';fill:#bfd8c3;fill-opacity:1"
         id="path18" />
      <path
         d="m 113.21583,91.278666 c -0.18824,1.11e-4 -0.6886,-5.89e-4 -0.88884,-5.17e-4 v 5.672006 h 0.88884 z"
         style="font-weight:200;font-family:'Nunito Sans';-inkscape-font-specification:'Nunito Sans Ultra-Light';fill:#bfd8c3;fill-opacity:1"
         id="path16" />
      <path
         d="m 118.03621,91.273499 c -0.31997,0.0014 -0.48596,0.0037 -0.88884,0.0046 v 2.369882 c 0,0.275166 0.0166,0.534982 0.0501,0.77928 0.0335,0.244299 0.0839,0.473349 0.15089,0.68678 0.067,0.213431 0.15061,0.411199 0.25115,0.593762 0.10054,0.182563 0.21786,0.350083 0.35192,0.501778 0.13405,0.151695 0.28511,0.284138 0.45268,0.397909 0.16757,0.113771 0.35186,0.20889 0.55294,0.284737 0.20108,0.07585 0.41859,0.132609 0.65319,0.170532 0.2346,0.03792 0.48636,0.05684 0.75448,0.05684 0.14111,0 0.28755,-0.01087 0.43925,-0.03204 0.15169,-0.02117 0.30849,-0.05275 0.47077,-0.09508 0.16227,-0.03528 0.3,-0.0723 0.41289,-0.111104 0.11289,-0.0388 0.20109,-0.07911 0.26459,-0.12144 l -0.21188,-0.74104 c -0.15522,0.05645 -0.35284,0.120133 -0.59273,0.190686 -0.22578,0.05647 -0.46533,0.08423 -0.71933,0.08423 -0.2152,0 -0.41512,-0.01497 -0.59945,-0.04496 -0.18433,-0.02999 -0.35349,-0.0749 -0.50694,-0.134875 -0.15346,-0.05997 -0.29134,-0.134834 -0.41393,-0.224793 -0.12259,-0.08996 -0.22971,-0.194764 -0.32143,-0.314709 -0.0917,-0.123472 -0.17202,-0.260381 -0.24081,-0.410311 -0.0688,-0.14993 -0.12622,-0.312987 -0.17208,-0.489376 -0.0459,-0.176389 -0.0799,-0.366109 -0.10284,-0.568957 -0.0229,-0.202848 -0.0346,-0.418716 -0.0346,-0.648023 z"
         style="font-weight:200;font-family:'Nunito Sans';-inkscape-font-specification:'Nunito Sans Ultra-Light';fill:#bfd8c3;fill-opacity:1"
         id="path15" />
    </g>
  </g>
</svg>
