<?xml version="1.0" encoding="UTF-8" standalone="no"?><!DOCTYPE svg PUBLIC "-//W3C//DTD SVG 1.1//EN" "http://www.w3.org/Graphics/SVG/1.1/DTD/svg11.dtd"><svg width="100%" height="100%" viewBox="0 0 16 16" version="1.1" xmlns="http://www.w3.org/2000/svg" xmlns:xlink="http://www.w3.org/1999/xlink" xml:space="preserve" xmlns:serif="http://www.serif.com/" style="fill-rule:evenodd;clip-rule:evenodd;stroke-linejoin:round;stroke-miterlimit:2;"><path d="M11.742,10.344c0.817,-1.114 1.257,-2.461 1.257,-3.842c0,-3.566 -2.934,-6.5 -6.5,-6.5c-3.566,-0 -6.5,2.934 -6.5,6.5c0,3.566 2.934,6.5 6.5,6.5c1.383,-0 2.731,-0.442 3.846,-1.26l-0.001,0c0.03,0.04 0.062,0.078 0.098,0.115l3.85,3.85c0.188,0.188 0.442,0.293 0.707,0.293c0.549,0 1.001,-0.451 1.001,-1c-0,-0.265 -0.106,-0.52 -0.293,-0.707l-3.85,-3.85c-0.036,-0.036 -0.074,-0.07 -0.115,-0.1l-0,0.001Zm-0.29,-3.844c-0,2.716 -2.236,4.952 -4.952,4.952c-2.716,-0 -4.952,-2.236 -4.952,-4.952c0,-2.716 2.236,-4.952 4.952,-4.952c2.716,0 4.952,2.236 4.952,4.952Z" style="fill-rule:nonzero;"/></svg>
